%TF.GenerationSoftware,KiCad,Pcbnew,(5.99.0-12060-g1fa5e43597)*%
%TF.CreationDate,2021-08-23T09:05:39-07:00*%
%TF.ProjectId,uplift_hat,75706c69-6674-45f6-9861-742e6b696361,rev?*%
%TF.SameCoordinates,Original*%
%TF.FileFunction,Soldermask,Top*%
%TF.FilePolarity,Negative*%
%FSLAX46Y46*%
G04 Gerber Fmt 4.6, Leading zero omitted, Abs format (unit mm)*
G04 Created by KiCad (PCBNEW (5.99.0-12060-g1fa5e43597)) date 2021-08-23 09:05:39*
%MOMM*%
%LPD*%
G01*
G04 APERTURE LIST*
G04 Aperture macros list*
%AMFreePoly0*
4,1,6,1.000000,0.000000,0.500000,-0.750000,-0.500000,-0.750000,-0.500000,0.750000,0.500000,0.750000,1.000000,0.000000,1.000000,0.000000,$1*%
%AMFreePoly1*
4,1,6,0.500000,-0.750000,-0.650000,-0.750000,-0.150000,0.000000,-0.650000,0.750000,0.500000,0.750000,0.500000,-0.750000,0.500000,-0.750000,$1*%
G04 Aperture macros list end*
%ADD10C,3.200000*%
%ADD11R,1.500000X1.500000*%
%ADD12C,1.500000*%
%ADD13FreePoly0,90.000000*%
%ADD14FreePoly1,90.000000*%
%ADD15R,1.700000X1.700000*%
%ADD16O,1.700000X1.700000*%
G04 APERTURE END LIST*
D10*
%TO.C,J2*%
X127447500Y-122250000D03*
X138877500Y-122250000D03*
D11*
X128717500Y-115900000D03*
D12*
X129987500Y-113360000D03*
X131257500Y-115900000D03*
X132527500Y-113360000D03*
X133797500Y-115900000D03*
X135067500Y-113360000D03*
X136337500Y-115900000D03*
X137607500Y-113360000D03*
%TD*%
D13*
%TO.C,JP1*%
X103800000Y-110600000D03*
D14*
X103800000Y-109150000D03*
%TD*%
D10*
%TO.C,J1*%
X121430000Y-122250000D03*
X110000000Y-122250000D03*
D11*
X111270000Y-115900000D03*
D12*
X112540000Y-113360000D03*
X113810000Y-115900000D03*
X115080000Y-113360000D03*
X116350000Y-115900000D03*
X117620000Y-113360000D03*
X118890000Y-115900000D03*
X120160000Y-113360000D03*
%TD*%
D15*
%TO.C,J3*%
X108500000Y-104770000D03*
D16*
X108500000Y-102230000D03*
X111040000Y-104770000D03*
X111040000Y-102230000D03*
X113580000Y-104770000D03*
X113580000Y-102230000D03*
X116120000Y-104770000D03*
X116120000Y-102230000D03*
X118660000Y-104770000D03*
X118660000Y-102230000D03*
X121200000Y-104770000D03*
X121200000Y-102230000D03*
X123740000Y-104770000D03*
X123740000Y-102230000D03*
X126280000Y-104770000D03*
X126280000Y-102230000D03*
X128820000Y-104770000D03*
X128820000Y-102230000D03*
X131360000Y-104770000D03*
X131360000Y-102230000D03*
X133900000Y-104770000D03*
X133900000Y-102230000D03*
X136440000Y-104770000D03*
X136440000Y-102230000D03*
X138980000Y-104770000D03*
X138980000Y-102230000D03*
X141520000Y-104770000D03*
X141520000Y-102230000D03*
X144060000Y-104770000D03*
X144060000Y-102230000D03*
X146600000Y-104770000D03*
X146600000Y-102230000D03*
X149140000Y-104770000D03*
X149140000Y-102230000D03*
X151680000Y-104770000D03*
X151680000Y-102230000D03*
X154220000Y-104770000D03*
X154220000Y-102230000D03*
X156760000Y-104770000D03*
X156760000Y-102230000D03*
%TD*%
M02*
