M48
; DRILL file {KiCad (5.99.0-12060-g1fa5e43597)} date Mon Aug 23 09:05:42 2021
; FORMAT={-:-/ absolute / inch / decimal}
; #@! TF.CreationDate,2021-08-23T09:05:42-07:00
; #@! TF.GenerationSoftware,Kicad,Pcbnew,(5.99.0-12060-g1fa5e43597)
; #@! TF.FileFunction,Plated,1,2,PTH
FMAT,2
INCH
; #@! TA.AperFunction,Plated,PTH,ComponentDrill
T1C0.0299
; #@! TA.AperFunction,Plated,PTH,ComponentDrill
T2C0.0394
%
G90
G05
T1
X4.3807Y-4.563
X4.4307Y-4.463
X4.4807Y-4.563
X4.5307Y-4.463
X4.5807Y-4.563
X4.6307Y-4.463
X4.6807Y-4.563
X4.7307Y-4.463
X5.0676Y-4.563
X5.1176Y-4.463
X5.1676Y-4.563
X5.2176Y-4.463
X5.2676Y-4.563
X5.3176Y-4.463
X5.3676Y-4.563
X5.4176Y-4.463
T2
X4.2717Y-4.0248
X4.2717Y-4.1248
X4.3717Y-4.0248
X4.3717Y-4.1248
X4.4717Y-4.0248
X4.4717Y-4.1248
X4.5717Y-4.0248
X4.5717Y-4.1248
X4.6717Y-4.0248
X4.6717Y-4.1248
X4.7717Y-4.0248
X4.7717Y-4.1248
X4.8717Y-4.0248
X4.8717Y-4.1248
X4.9717Y-4.0248
X4.9717Y-4.1248
X5.0717Y-4.0248
X5.0717Y-4.1248
X5.1717Y-4.0248
X5.1717Y-4.1248
X5.2717Y-4.0248
X5.2717Y-4.1248
X5.3717Y-4.0248
X5.3717Y-4.1248
X5.4717Y-4.0248
X5.4717Y-4.1248
X5.5717Y-4.0248
X5.5717Y-4.1248
X5.6717Y-4.0248
X5.6717Y-4.1248
X5.7717Y-4.0248
X5.7717Y-4.1248
X5.8717Y-4.0248
X5.8717Y-4.1248
X5.9717Y-4.0248
X5.9717Y-4.1248
X6.0717Y-4.0248
X6.0717Y-4.1248
X6.1717Y-4.0248
X6.1717Y-4.1248
T0
M30
