%TF.GenerationSoftware,KiCad,Pcbnew,(5.99.0-12060-g1fa5e43597)*%
%TF.CreationDate,2021-08-23T09:05:39-07:00*%
%TF.ProjectId,uplift_hat,75706c69-6674-45f6-9861-742e6b696361,rev?*%
%TF.SameCoordinates,Original*%
%TF.FileFunction,Copper,L1,Top*%
%TF.FilePolarity,Positive*%
%FSLAX46Y46*%
G04 Gerber Fmt 4.6, Leading zero omitted, Abs format (unit mm)*
G04 Created by KiCad (PCBNEW (5.99.0-12060-g1fa5e43597)) date 2021-08-23 09:05:39*
%MOMM*%
%LPD*%
G01*
G04 APERTURE LIST*
G04 Aperture macros list*
%AMFreePoly0*
4,1,6,1.000000,0.000000,0.500000,-0.750000,-0.500000,-0.750000,-0.500000,0.750000,0.500000,0.750000,1.000000,0.000000,1.000000,0.000000,$1*%
%AMFreePoly1*
4,1,6,0.500000,-0.750000,-0.650000,-0.750000,-0.150000,0.000000,-0.650000,0.750000,0.500000,0.750000,0.500000,-0.750000,0.500000,-0.750000,$1*%
G04 Aperture macros list end*
%TA.AperFunction,ComponentPad*%
%ADD10R,1.500000X1.500000*%
%TD*%
%TA.AperFunction,ComponentPad*%
%ADD11C,1.500000*%
%TD*%
%TA.AperFunction,SMDPad,CuDef*%
%ADD12FreePoly0,90.000000*%
%TD*%
%TA.AperFunction,SMDPad,CuDef*%
%ADD13FreePoly1,90.000000*%
%TD*%
%TA.AperFunction,ComponentPad*%
%ADD14R,1.700000X1.700000*%
%TD*%
%TA.AperFunction,ComponentPad*%
%ADD15O,1.700000X1.700000*%
%TD*%
%TA.AperFunction,Conductor*%
%ADD16C,0.250000*%
%TD*%
G04 APERTURE END LIST*
D10*
%TO.P,J2,1*%
%TO.N,/DOWN*%
X128717500Y-115900000D03*
D11*
%TO.P,J2,2*%
%TO.N,/UP*%
X129987500Y-113360000D03*
%TO.P,J2,3*%
%TO.N,Net-(J1-Pad3)*%
X131257500Y-115900000D03*
%TO.P,J2,4*%
%TO.N,+5V*%
X132527500Y-113360000D03*
%TO.P,J2,5*%
%TO.N,/UART_TX*%
X133797500Y-115900000D03*
%TO.P,J2,6*%
%TO.N,GND*%
X135067500Y-113360000D03*
%TO.P,J2,7*%
%TO.N,/UART_RX*%
X136337500Y-115900000D03*
%TO.P,J2,8*%
%TO.N,Net-(J1-Pad8)*%
X137607500Y-113360000D03*
%TD*%
D12*
%TO.P,JP1,1,A*%
%TO.N,+5V*%
X103800000Y-110600000D03*
D13*
%TO.P,JP1,2,B*%
%TO.N,Net-(J3-Pad2)*%
X103800000Y-109150000D03*
%TD*%
D10*
%TO.P,J1,1*%
%TO.N,/DOWN*%
X111270000Y-115900000D03*
D11*
%TO.P,J1,2*%
%TO.N,/UP*%
X112540000Y-113360000D03*
%TO.P,J1,3*%
%TO.N,Net-(J1-Pad3)*%
X113810000Y-115900000D03*
%TO.P,J1,4*%
%TO.N,+5V*%
X115080000Y-113360000D03*
%TO.P,J1,5*%
%TO.N,/UART_TX*%
X116350000Y-115900000D03*
%TO.P,J1,6*%
%TO.N,GND*%
X117620000Y-113360000D03*
%TO.P,J1,7*%
%TO.N,/UART_RX*%
X118890000Y-115900000D03*
%TO.P,J1,8*%
%TO.N,Net-(J1-Pad8)*%
X120160000Y-113360000D03*
%TD*%
D14*
%TO.P,J3,1,3V3*%
%TO.N,unconnected-(J3-Pad1)*%
X108500000Y-104770000D03*
D15*
%TO.P,J3,2,5V*%
%TO.N,Net-(J3-Pad2)*%
X108500000Y-102230000D03*
%TO.P,J3,3,SDA/GPIO2*%
%TO.N,unconnected-(J3-Pad3)*%
X111040000Y-104770000D03*
%TO.P,J3,4,5V*%
%TO.N,Net-(J3-Pad2)*%
X111040000Y-102230000D03*
%TO.P,J3,5,SCL/GPIO3*%
%TO.N,unconnected-(J3-Pad5)*%
X113580000Y-104770000D03*
%TO.P,J3,6,GND*%
%TO.N,GND*%
X113580000Y-102230000D03*
%TO.P,J3,7,GCLK0/GPIO4*%
%TO.N,unconnected-(J3-Pad7)*%
X116120000Y-104770000D03*
%TO.P,J3,8,GPIO14/TXD*%
%TO.N,/UART_RX*%
X116120000Y-102230000D03*
%TO.P,J3,9,GND*%
%TO.N,GND*%
X118660000Y-104770000D03*
%TO.P,J3,10,GPIO15/RXD*%
%TO.N,/UART_TX*%
X118660000Y-102230000D03*
%TO.P,J3,11,GPIO17*%
%TO.N,unconnected-(J3-Pad11)*%
X121200000Y-104770000D03*
%TO.P,J3,12,GPIO18/PWM0*%
%TO.N,unconnected-(J3-Pad12)*%
X121200000Y-102230000D03*
%TO.P,J3,13,GPIO27*%
%TO.N,unconnected-(J3-Pad13)*%
X123740000Y-104770000D03*
%TO.P,J3,14,GND*%
%TO.N,GND*%
X123740000Y-102230000D03*
%TO.P,J3,15,GPIO22*%
%TO.N,unconnected-(J3-Pad15)*%
X126280000Y-104770000D03*
%TO.P,J3,16,GPIO23*%
%TO.N,/UP*%
X126280000Y-102230000D03*
%TO.P,J3,17,3V3*%
%TO.N,unconnected-(J3-Pad17)*%
X128820000Y-104770000D03*
%TO.P,J3,18,GPIO24*%
%TO.N,/DOWN*%
X128820000Y-102230000D03*
%TO.P,J3,19,MOSI0/GPIO10*%
%TO.N,unconnected-(J3-Pad19)*%
X131360000Y-104770000D03*
%TO.P,J3,20,GND*%
%TO.N,GND*%
X131360000Y-102230000D03*
%TO.P,J3,21,MISO0/GPIO9*%
%TO.N,unconnected-(J3-Pad21)*%
X133900000Y-104770000D03*
%TO.P,J3,22,GPIO25*%
%TO.N,unconnected-(J3-Pad22)*%
X133900000Y-102230000D03*
%TO.P,J3,23,SCLK0/GPIO11*%
%TO.N,unconnected-(J3-Pad23)*%
X136440000Y-104770000D03*
%TO.P,J3,24,~{CE0}/GPIO8*%
%TO.N,unconnected-(J3-Pad24)*%
X136440000Y-102230000D03*
%TO.P,J3,25,GND*%
%TO.N,GND*%
X138980000Y-104770000D03*
%TO.P,J3,26,~{CE1}/GPIO7*%
%TO.N,unconnected-(J3-Pad26)*%
X138980000Y-102230000D03*
%TO.P,J3,27,ID_SD/GPIO0*%
%TO.N,unconnected-(J3-Pad27)*%
X141520000Y-104770000D03*
%TO.P,J3,28,ID_SC/GPIO1*%
%TO.N,unconnected-(J3-Pad28)*%
X141520000Y-102230000D03*
%TO.P,J3,29,GCLK1/GPIO5*%
%TO.N,unconnected-(J3-Pad29)*%
X144060000Y-104770000D03*
%TO.P,J3,30,GND*%
%TO.N,GND*%
X144060000Y-102230000D03*
%TO.P,J3,31,GCLK2/GPIO6*%
%TO.N,unconnected-(J3-Pad31)*%
X146600000Y-104770000D03*
%TO.P,J3,32,PWM0/GPIO12*%
%TO.N,unconnected-(J3-Pad32)*%
X146600000Y-102230000D03*
%TO.P,J3,33,PWM1/GPIO13*%
%TO.N,unconnected-(J3-Pad33)*%
X149140000Y-104770000D03*
%TO.P,J3,34,GND*%
%TO.N,GND*%
X149140000Y-102230000D03*
%TO.P,J3,35,GPIO19/MISO1*%
%TO.N,unconnected-(J3-Pad35)*%
X151680000Y-104770000D03*
%TO.P,J3,36,GPIO16*%
%TO.N,unconnected-(J3-Pad36)*%
X151680000Y-102230000D03*
%TO.P,J3,37,GPIO26*%
%TO.N,unconnected-(J3-Pad37)*%
X154220000Y-104770000D03*
%TO.P,J3,38,GPIO20/MOSI1*%
%TO.N,unconnected-(J3-Pad38)*%
X154220000Y-102230000D03*
%TO.P,J3,39,GND*%
%TO.N,GND*%
X156760000Y-104770000D03*
%TO.P,J3,40,GPIO21/SCLK1*%
%TO.N,unconnected-(J3-Pad40)*%
X156760000Y-102230000D03*
%TD*%
D16*
%TO.N,/DOWN*%
X138800000Y-115150000D02*
X138800000Y-113000000D01*
X138800000Y-113000000D02*
X132250000Y-106450000D01*
X127517500Y-117100000D02*
X128717500Y-115900000D01*
X129917500Y-117100000D02*
X136850000Y-117100000D01*
X132250000Y-106450000D02*
X131250000Y-106450000D01*
X136850000Y-117100000D02*
X138800000Y-115150000D01*
X128717500Y-115900000D02*
X129917500Y-117100000D01*
X111270000Y-115900000D02*
X112470000Y-117100000D01*
X131250000Y-106450000D02*
X130100000Y-105300000D01*
X130100000Y-103510000D02*
X128820000Y-102230000D01*
X112470000Y-117100000D02*
X127517500Y-117100000D01*
X130100000Y-105300000D02*
X130100000Y-103510000D01*
%TO.N,/UP*%
X133800000Y-113700000D02*
X133800000Y-111500000D01*
X127500000Y-103450000D02*
X126280000Y-102230000D01*
X128907500Y-114440000D02*
X129987500Y-113360000D01*
X129987500Y-113360000D02*
X131127500Y-114500000D01*
X131127500Y-114500000D02*
X133000000Y-114500000D01*
X113620000Y-114440000D02*
X128907500Y-114440000D01*
X133800000Y-111500000D02*
X127500000Y-105200000D01*
X112540000Y-113360000D02*
X113620000Y-114440000D01*
X133000000Y-114500000D02*
X133800000Y-113700000D01*
X127500000Y-105200000D02*
X127500000Y-103450000D01*
%TO.N,Net-(J1-Pad3)*%
X114880000Y-114830000D02*
X130187500Y-114830000D01*
X113810000Y-115900000D02*
X114880000Y-114830000D01*
X130187500Y-114830000D02*
X131257500Y-115900000D01*
%TO.N,+5V*%
X115080000Y-113360000D02*
X112320000Y-110600000D01*
X116240000Y-112200000D02*
X131367500Y-112200000D01*
X115080000Y-113360000D02*
X116240000Y-112200000D01*
X131367500Y-112200000D02*
X132527500Y-113360000D01*
X112320000Y-110600000D02*
X103800000Y-110600000D01*
%TO.N,Net-(J3-Pad2)*%
X103800000Y-109150000D02*
X103800000Y-106930000D01*
X103800000Y-106930000D02*
X108500000Y-102230000D01*
X108500000Y-102230000D02*
X111040000Y-102230000D01*
%TD*%
%TA.AperFunction,Conductor*%
%TO.N,GND*%
G36*
X161470057Y-100509500D02*
G01*
X161484858Y-100511805D01*
X161484861Y-100511805D01*
X161493730Y-100513186D01*
X161502631Y-100512022D01*
X161502635Y-100512022D01*
X161512411Y-100510743D01*
X161535343Y-100509852D01*
X161806149Y-100524044D01*
X161819265Y-100525422D01*
X162115550Y-100572349D01*
X162128450Y-100575091D01*
X162418205Y-100652731D01*
X162430742Y-100656805D01*
X162678762Y-100752011D01*
X162710787Y-100764304D01*
X162722835Y-100769668D01*
X162990117Y-100905855D01*
X163001538Y-100912449D01*
X163253121Y-101075828D01*
X163263791Y-101083581D01*
X163496908Y-101272355D01*
X163506709Y-101281180D01*
X163718820Y-101493291D01*
X163727645Y-101503092D01*
X163916419Y-101736209D01*
X163924172Y-101746879D01*
X164087551Y-101998462D01*
X164094145Y-102009883D01*
X164230332Y-102277165D01*
X164235696Y-102289213D01*
X164325448Y-102523023D01*
X164343193Y-102569251D01*
X164347269Y-102581795D01*
X164424909Y-102871550D01*
X164427651Y-102884450D01*
X164463263Y-103109292D01*
X164474578Y-103180735D01*
X164475956Y-103193851D01*
X164488930Y-103441412D01*
X164489764Y-103457330D01*
X164488436Y-103483312D01*
X164488195Y-103484856D01*
X164488195Y-103484860D01*
X164486814Y-103493730D01*
X164487978Y-103502632D01*
X164487978Y-103502635D01*
X164490936Y-103525251D01*
X164492000Y-103541589D01*
X164492000Y-126450672D01*
X164490500Y-126470056D01*
X164486814Y-126493730D01*
X164487978Y-126502631D01*
X164487978Y-126502635D01*
X164489257Y-126512411D01*
X164490148Y-126535343D01*
X164475956Y-126806148D01*
X164474578Y-126819265D01*
X164427651Y-127115550D01*
X164424909Y-127128450D01*
X164347269Y-127418205D01*
X164343195Y-127430742D01*
X164278986Y-127598013D01*
X164235696Y-127710787D01*
X164230332Y-127722835D01*
X164094145Y-127990117D01*
X164087551Y-128001538D01*
X163924172Y-128253121D01*
X163916419Y-128263791D01*
X163727645Y-128496908D01*
X163718820Y-128506709D01*
X163506709Y-128718820D01*
X163496908Y-128727645D01*
X163263791Y-128916419D01*
X163253121Y-128924172D01*
X163001538Y-129087551D01*
X162990117Y-129094145D01*
X162722835Y-129230332D01*
X162710786Y-129235696D01*
X162430742Y-129343195D01*
X162418205Y-129347269D01*
X162128450Y-129424909D01*
X162115550Y-129427651D01*
X161819265Y-129474578D01*
X161806149Y-129475956D01*
X161542666Y-129489764D01*
X161516688Y-129488436D01*
X161515144Y-129488195D01*
X161515140Y-129488195D01*
X161506270Y-129486814D01*
X161497368Y-129487978D01*
X161497365Y-129487978D01*
X161474749Y-129490936D01*
X161458411Y-129492000D01*
X103549328Y-129492000D01*
X103529943Y-129490500D01*
X103515142Y-129488195D01*
X103515139Y-129488195D01*
X103506270Y-129486814D01*
X103497369Y-129487978D01*
X103497365Y-129487978D01*
X103487589Y-129489257D01*
X103464657Y-129490148D01*
X103193851Y-129475956D01*
X103180735Y-129474578D01*
X102884450Y-129427651D01*
X102871550Y-129424909D01*
X102581795Y-129347269D01*
X102569258Y-129343195D01*
X102289214Y-129235696D01*
X102277165Y-129230332D01*
X102009883Y-129094145D01*
X101998462Y-129087551D01*
X101746879Y-128924172D01*
X101736209Y-128916419D01*
X101503092Y-128727645D01*
X101493291Y-128718820D01*
X101281180Y-128506709D01*
X101272355Y-128496908D01*
X101083581Y-128263791D01*
X101075828Y-128253121D01*
X100912449Y-128001538D01*
X100905855Y-127990117D01*
X100769668Y-127722835D01*
X100764304Y-127710787D01*
X100721014Y-127598013D01*
X100656805Y-127430742D01*
X100652731Y-127418205D01*
X100575091Y-127128450D01*
X100572349Y-127115550D01*
X100525422Y-126819265D01*
X100524044Y-126806148D01*
X100510236Y-126542670D01*
X100511564Y-126516688D01*
X100511805Y-126515144D01*
X100511805Y-126515140D01*
X100513186Y-126506270D01*
X100511547Y-126493730D01*
X100509064Y-126474749D01*
X100508000Y-126458411D01*
X100508000Y-126440702D01*
X101613122Y-126440702D01*
X101623591Y-126707158D01*
X101671499Y-126969479D01*
X101755891Y-127222434D01*
X101757881Y-127226417D01*
X101757882Y-127226419D01*
X101834272Y-127379297D01*
X101875083Y-127460973D01*
X101877610Y-127464629D01*
X101877611Y-127464631D01*
X101977824Y-127609627D01*
X102026696Y-127680339D01*
X102029718Y-127683608D01*
X102204689Y-127872892D01*
X102204694Y-127872897D01*
X102207705Y-127876154D01*
X102414499Y-128044511D01*
X102642952Y-128182051D01*
X102647047Y-128183785D01*
X102647049Y-128183786D01*
X102884404Y-128284293D01*
X102884411Y-128284295D01*
X102888505Y-128286029D01*
X103146260Y-128354372D01*
X103150684Y-128354896D01*
X103150686Y-128354896D01*
X103256761Y-128367450D01*
X103411072Y-128385714D01*
X103677659Y-128379432D01*
X103828219Y-128354372D01*
X103936310Y-128336381D01*
X103936314Y-128336380D01*
X103940700Y-128335650D01*
X103944941Y-128334309D01*
X103944944Y-128334308D01*
X104190703Y-128256584D01*
X104190705Y-128256583D01*
X104194949Y-128255241D01*
X104198960Y-128253315D01*
X104198965Y-128253313D01*
X104431313Y-128141741D01*
X104431314Y-128141740D01*
X104435332Y-128139811D01*
X104574517Y-128046811D01*
X104653344Y-127994141D01*
X104653348Y-127994138D01*
X104657052Y-127991663D01*
X104855686Y-127813751D01*
X105027270Y-127609627D01*
X105034514Y-127598013D01*
X105166028Y-127387137D01*
X105168382Y-127383363D01*
X105276204Y-127139473D01*
X105348587Y-126882824D01*
X105358886Y-126806148D01*
X105383658Y-126621719D01*
X105383659Y-126621711D01*
X105384085Y-126618537D01*
X105386469Y-126542670D01*
X105387709Y-126503222D01*
X105387709Y-126503217D01*
X105387810Y-126500000D01*
X105384318Y-126450672D01*
X105383612Y-126440702D01*
X159613122Y-126440702D01*
X159623591Y-126707158D01*
X159671499Y-126969479D01*
X159755891Y-127222434D01*
X159757881Y-127226417D01*
X159757882Y-127226419D01*
X159834272Y-127379297D01*
X159875083Y-127460973D01*
X159877610Y-127464629D01*
X159877611Y-127464631D01*
X159977824Y-127609627D01*
X160026696Y-127680339D01*
X160029718Y-127683608D01*
X160204689Y-127872892D01*
X160204694Y-127872897D01*
X160207705Y-127876154D01*
X160414499Y-128044511D01*
X160642952Y-128182051D01*
X160647047Y-128183785D01*
X160647049Y-128183786D01*
X160884404Y-128284293D01*
X160884411Y-128284295D01*
X160888505Y-128286029D01*
X161146260Y-128354372D01*
X161150684Y-128354896D01*
X161150686Y-128354896D01*
X161256761Y-128367450D01*
X161411072Y-128385714D01*
X161677659Y-128379432D01*
X161828219Y-128354372D01*
X161936310Y-128336381D01*
X161936314Y-128336380D01*
X161940700Y-128335650D01*
X161944941Y-128334309D01*
X161944944Y-128334308D01*
X162190703Y-128256584D01*
X162190705Y-128256583D01*
X162194949Y-128255241D01*
X162198960Y-128253315D01*
X162198965Y-128253313D01*
X162431313Y-128141741D01*
X162431314Y-128141740D01*
X162435332Y-128139811D01*
X162574517Y-128046811D01*
X162653344Y-127994141D01*
X162653348Y-127994138D01*
X162657052Y-127991663D01*
X162855686Y-127813751D01*
X163027270Y-127609627D01*
X163034514Y-127598013D01*
X163166028Y-127387137D01*
X163168382Y-127383363D01*
X163276204Y-127139473D01*
X163348587Y-126882824D01*
X163358886Y-126806148D01*
X163383658Y-126621719D01*
X163383659Y-126621711D01*
X163384085Y-126618537D01*
X163386469Y-126542670D01*
X163387709Y-126503222D01*
X163387709Y-126503217D01*
X163387810Y-126500000D01*
X163384318Y-126450672D01*
X163369292Y-126238454D01*
X163368977Y-126234005D01*
X163312852Y-125973318D01*
X163220556Y-125723139D01*
X163093931Y-125488461D01*
X162935502Y-125273965D01*
X162748431Y-125083933D01*
X162744892Y-125081232D01*
X162744885Y-125081226D01*
X162539991Y-124924857D01*
X162536451Y-124922155D01*
X162479708Y-124890377D01*
X162307676Y-124794034D01*
X162307673Y-124794033D01*
X162303790Y-124791858D01*
X162299645Y-124790254D01*
X162299642Y-124790253D01*
X162162058Y-124737026D01*
X162055092Y-124695644D01*
X162050767Y-124694641D01*
X162050762Y-124694640D01*
X161908287Y-124661616D01*
X161795319Y-124635432D01*
X161529652Y-124612423D01*
X161525217Y-124612667D01*
X161525213Y-124612667D01*
X161267838Y-124626831D01*
X161267831Y-124626832D01*
X161263395Y-124627076D01*
X161001858Y-124679099D01*
X160750260Y-124767454D01*
X160513622Y-124890377D01*
X160510007Y-124892960D01*
X160510001Y-124892964D01*
X160373042Y-124990837D01*
X160296665Y-125045417D01*
X160103717Y-125229480D01*
X159938629Y-125438893D01*
X159909838Y-125488461D01*
X159806929Y-125665631D01*
X159806926Y-125665637D01*
X159804695Y-125669478D01*
X159704586Y-125916635D01*
X159640301Y-126175431D01*
X159613122Y-126440702D01*
X105383612Y-126440702D01*
X105369292Y-126238454D01*
X105368977Y-126234005D01*
X105312852Y-125973318D01*
X105220556Y-125723139D01*
X105093931Y-125488461D01*
X104935502Y-125273965D01*
X104748431Y-125083933D01*
X104744892Y-125081232D01*
X104744885Y-125081226D01*
X104539991Y-124924857D01*
X104536451Y-124922155D01*
X104479708Y-124890377D01*
X104307676Y-124794034D01*
X104307673Y-124794033D01*
X104303790Y-124791858D01*
X104299645Y-124790254D01*
X104299642Y-124790253D01*
X104162058Y-124737026D01*
X104055092Y-124695644D01*
X104050767Y-124694641D01*
X104050762Y-124694640D01*
X103908287Y-124661616D01*
X103795319Y-124635432D01*
X103529652Y-124612423D01*
X103525217Y-124612667D01*
X103525213Y-124612667D01*
X103267838Y-124626831D01*
X103267831Y-124626832D01*
X103263395Y-124627076D01*
X103001858Y-124679099D01*
X102750260Y-124767454D01*
X102513622Y-124890377D01*
X102510007Y-124892960D01*
X102510001Y-124892964D01*
X102373042Y-124990837D01*
X102296665Y-125045417D01*
X102103717Y-125229480D01*
X101938629Y-125438893D01*
X101909838Y-125488461D01*
X101806929Y-125665631D01*
X101806926Y-125665637D01*
X101804695Y-125669478D01*
X101704586Y-125916635D01*
X101640301Y-126175431D01*
X101613122Y-126440702D01*
X100508000Y-126440702D01*
X100508000Y-122227869D01*
X107886689Y-122227869D01*
X107903238Y-122514883D01*
X107904063Y-122519088D01*
X107904064Y-122519096D01*
X107936010Y-122681921D01*
X107958586Y-122796995D01*
X107959973Y-122801045D01*
X107959974Y-122801050D01*
X108050321Y-123064930D01*
X108051710Y-123068986D01*
X108180885Y-123325822D01*
X108343721Y-123562750D01*
X108537206Y-123775388D01*
X108540501Y-123778143D01*
X108540502Y-123778144D01*
X108591258Y-123820582D01*
X108757759Y-123959798D01*
X109001298Y-124112571D01*
X109263318Y-124230877D01*
X109267437Y-124232097D01*
X109534857Y-124311311D01*
X109534862Y-124311312D01*
X109538970Y-124312529D01*
X109543204Y-124313177D01*
X109543209Y-124313178D01*
X109791811Y-124351219D01*
X109823153Y-124356015D01*
X109969485Y-124358314D01*
X110106317Y-124360464D01*
X110106323Y-124360464D01*
X110110608Y-124360531D01*
X110114860Y-124360016D01*
X110114868Y-124360016D01*
X110391756Y-124326508D01*
X110391761Y-124326507D01*
X110396017Y-124325992D01*
X110674097Y-124253039D01*
X110939704Y-124143021D01*
X111187922Y-123997974D01*
X111414159Y-123820582D01*
X111455285Y-123778144D01*
X111611244Y-123617206D01*
X111614227Y-123614128D01*
X111616760Y-123610680D01*
X111616764Y-123610675D01*
X111781887Y-123385886D01*
X111784425Y-123382431D01*
X111921604Y-123129779D01*
X112023225Y-122860848D01*
X112087407Y-122580613D01*
X112112963Y-122294260D01*
X112113427Y-122250000D01*
X112111918Y-122227869D01*
X119316689Y-122227869D01*
X119333238Y-122514883D01*
X119334063Y-122519088D01*
X119334064Y-122519096D01*
X119366010Y-122681921D01*
X119388586Y-122796995D01*
X119389973Y-122801045D01*
X119389974Y-122801050D01*
X119480321Y-123064930D01*
X119481710Y-123068986D01*
X119610885Y-123325822D01*
X119773721Y-123562750D01*
X119967206Y-123775388D01*
X119970501Y-123778143D01*
X119970502Y-123778144D01*
X120021258Y-123820582D01*
X120187759Y-123959798D01*
X120431298Y-124112571D01*
X120693318Y-124230877D01*
X120697437Y-124232097D01*
X120964857Y-124311311D01*
X120964862Y-124311312D01*
X120968970Y-124312529D01*
X120973204Y-124313177D01*
X120973209Y-124313178D01*
X121221811Y-124351219D01*
X121253153Y-124356015D01*
X121399485Y-124358314D01*
X121536317Y-124360464D01*
X121536323Y-124360464D01*
X121540608Y-124360531D01*
X121544860Y-124360016D01*
X121544868Y-124360016D01*
X121821756Y-124326508D01*
X121821761Y-124326507D01*
X121826017Y-124325992D01*
X122104097Y-124253039D01*
X122369704Y-124143021D01*
X122617922Y-123997974D01*
X122844159Y-123820582D01*
X122885285Y-123778144D01*
X123041244Y-123617206D01*
X123044227Y-123614128D01*
X123046760Y-123610680D01*
X123046764Y-123610675D01*
X123211887Y-123385886D01*
X123214425Y-123382431D01*
X123351604Y-123129779D01*
X123453225Y-122860848D01*
X123517407Y-122580613D01*
X123542963Y-122294260D01*
X123543427Y-122250000D01*
X123541918Y-122227869D01*
X125334189Y-122227869D01*
X125350738Y-122514883D01*
X125351563Y-122519088D01*
X125351564Y-122519096D01*
X125383510Y-122681921D01*
X125406086Y-122796995D01*
X125407473Y-122801045D01*
X125407474Y-122801050D01*
X125497821Y-123064930D01*
X125499210Y-123068986D01*
X125628385Y-123325822D01*
X125791221Y-123562750D01*
X125984706Y-123775388D01*
X125988001Y-123778143D01*
X125988002Y-123778144D01*
X126038758Y-123820582D01*
X126205259Y-123959798D01*
X126448798Y-124112571D01*
X126710818Y-124230877D01*
X126714937Y-124232097D01*
X126982357Y-124311311D01*
X126982362Y-124311312D01*
X126986470Y-124312529D01*
X126990704Y-124313177D01*
X126990709Y-124313178D01*
X127239311Y-124351219D01*
X127270653Y-124356015D01*
X127416985Y-124358314D01*
X127553817Y-124360464D01*
X127553823Y-124360464D01*
X127558108Y-124360531D01*
X127562360Y-124360016D01*
X127562368Y-124360016D01*
X127839256Y-124326508D01*
X127839261Y-124326507D01*
X127843517Y-124325992D01*
X128121597Y-124253039D01*
X128387204Y-124143021D01*
X128635422Y-123997974D01*
X128861659Y-123820582D01*
X128902785Y-123778144D01*
X129058744Y-123617206D01*
X129061727Y-123614128D01*
X129064260Y-123610680D01*
X129064264Y-123610675D01*
X129229387Y-123385886D01*
X129231925Y-123382431D01*
X129369104Y-123129779D01*
X129470725Y-122860848D01*
X129534907Y-122580613D01*
X129560463Y-122294260D01*
X129560927Y-122250000D01*
X129559418Y-122227869D01*
X136764189Y-122227869D01*
X136780738Y-122514883D01*
X136781563Y-122519088D01*
X136781564Y-122519096D01*
X136813510Y-122681921D01*
X136836086Y-122796995D01*
X136837473Y-122801045D01*
X136837474Y-122801050D01*
X136927821Y-123064930D01*
X136929210Y-123068986D01*
X137058385Y-123325822D01*
X137221221Y-123562750D01*
X137414706Y-123775388D01*
X137418001Y-123778143D01*
X137418002Y-123778144D01*
X137468758Y-123820582D01*
X137635259Y-123959798D01*
X137878798Y-124112571D01*
X138140818Y-124230877D01*
X138144937Y-124232097D01*
X138412357Y-124311311D01*
X138412362Y-124311312D01*
X138416470Y-124312529D01*
X138420704Y-124313177D01*
X138420709Y-124313178D01*
X138669311Y-124351219D01*
X138700653Y-124356015D01*
X138846985Y-124358314D01*
X138983817Y-124360464D01*
X138983823Y-124360464D01*
X138988108Y-124360531D01*
X138992360Y-124360016D01*
X138992368Y-124360016D01*
X139269256Y-124326508D01*
X139269261Y-124326507D01*
X139273517Y-124325992D01*
X139551597Y-124253039D01*
X139817204Y-124143021D01*
X140065422Y-123997974D01*
X140291659Y-123820582D01*
X140332785Y-123778144D01*
X140488744Y-123617206D01*
X140491727Y-123614128D01*
X140494260Y-123610680D01*
X140494264Y-123610675D01*
X140659387Y-123385886D01*
X140661925Y-123382431D01*
X140799104Y-123129779D01*
X140900725Y-122860848D01*
X140964907Y-122580613D01*
X140990463Y-122294260D01*
X140990927Y-122250000D01*
X140971373Y-121963175D01*
X140966836Y-121941264D01*
X140913943Y-121685855D01*
X140913074Y-121681658D01*
X140817107Y-121410657D01*
X140685250Y-121155188D01*
X140671988Y-121136317D01*
X140522404Y-120923482D01*
X140519941Y-120919977D01*
X140324240Y-120709378D01*
X140101768Y-120527287D01*
X139856642Y-120377073D01*
X139838548Y-120369130D01*
X139597330Y-120263243D01*
X139593398Y-120261517D01*
X139567463Y-120254129D01*
X139321034Y-120183932D01*
X139321035Y-120183932D01*
X139316906Y-120182756D01*
X139104204Y-120152485D01*
X139036536Y-120142854D01*
X139036534Y-120142854D01*
X139032284Y-120142249D01*
X139027995Y-120142227D01*
X139027988Y-120142226D01*
X138749083Y-120140765D01*
X138749076Y-120140765D01*
X138744797Y-120140743D01*
X138740553Y-120141302D01*
X138740549Y-120141302D01*
X138615160Y-120157810D01*
X138459766Y-120178268D01*
X138455626Y-120179401D01*
X138455624Y-120179401D01*
X138378811Y-120200415D01*
X138182464Y-120254129D01*
X138178516Y-120255813D01*
X137921976Y-120365237D01*
X137921972Y-120365239D01*
X137918024Y-120366923D01*
X137793460Y-120441473D01*
X137675021Y-120512357D01*
X137675017Y-120512360D01*
X137671339Y-120514561D01*
X137446972Y-120694313D01*
X137249077Y-120902851D01*
X137081314Y-121136317D01*
X136946788Y-121390392D01*
X136847989Y-121660373D01*
X136786745Y-121941264D01*
X136764189Y-122227869D01*
X129559418Y-122227869D01*
X129541373Y-121963175D01*
X129536836Y-121941264D01*
X129483943Y-121685855D01*
X129483074Y-121681658D01*
X129387107Y-121410657D01*
X129255250Y-121155188D01*
X129241988Y-121136317D01*
X129092404Y-120923482D01*
X129089941Y-120919977D01*
X128894240Y-120709378D01*
X128671768Y-120527287D01*
X128426642Y-120377073D01*
X128408548Y-120369130D01*
X128167330Y-120263243D01*
X128163398Y-120261517D01*
X128137463Y-120254129D01*
X127891034Y-120183932D01*
X127891035Y-120183932D01*
X127886906Y-120182756D01*
X127674204Y-120152485D01*
X127606536Y-120142854D01*
X127606534Y-120142854D01*
X127602284Y-120142249D01*
X127597995Y-120142227D01*
X127597988Y-120142226D01*
X127319083Y-120140765D01*
X127319076Y-120140765D01*
X127314797Y-120140743D01*
X127310553Y-120141302D01*
X127310549Y-120141302D01*
X127185160Y-120157810D01*
X127029766Y-120178268D01*
X127025626Y-120179401D01*
X127025624Y-120179401D01*
X126948811Y-120200415D01*
X126752464Y-120254129D01*
X126748516Y-120255813D01*
X126491976Y-120365237D01*
X126491972Y-120365239D01*
X126488024Y-120366923D01*
X126363460Y-120441473D01*
X126245021Y-120512357D01*
X126245017Y-120512360D01*
X126241339Y-120514561D01*
X126016972Y-120694313D01*
X125819077Y-120902851D01*
X125651314Y-121136317D01*
X125516788Y-121390392D01*
X125417989Y-121660373D01*
X125356745Y-121941264D01*
X125334189Y-122227869D01*
X123541918Y-122227869D01*
X123523873Y-121963175D01*
X123519336Y-121941264D01*
X123466443Y-121685855D01*
X123465574Y-121681658D01*
X123369607Y-121410657D01*
X123237750Y-121155188D01*
X123224488Y-121136317D01*
X123074904Y-120923482D01*
X123072441Y-120919977D01*
X122876740Y-120709378D01*
X122654268Y-120527287D01*
X122409142Y-120377073D01*
X122391048Y-120369130D01*
X122149830Y-120263243D01*
X122145898Y-120261517D01*
X122119963Y-120254129D01*
X121873534Y-120183932D01*
X121873535Y-120183932D01*
X121869406Y-120182756D01*
X121656704Y-120152485D01*
X121589036Y-120142854D01*
X121589034Y-120142854D01*
X121584784Y-120142249D01*
X121580495Y-120142227D01*
X121580488Y-120142226D01*
X121301583Y-120140765D01*
X121301576Y-120140765D01*
X121297297Y-120140743D01*
X121293053Y-120141302D01*
X121293049Y-120141302D01*
X121167660Y-120157810D01*
X121012266Y-120178268D01*
X121008126Y-120179401D01*
X121008124Y-120179401D01*
X120931311Y-120200415D01*
X120734964Y-120254129D01*
X120731016Y-120255813D01*
X120474476Y-120365237D01*
X120474472Y-120365239D01*
X120470524Y-120366923D01*
X120345960Y-120441473D01*
X120227521Y-120512357D01*
X120227517Y-120512360D01*
X120223839Y-120514561D01*
X119999472Y-120694313D01*
X119801577Y-120902851D01*
X119633814Y-121136317D01*
X119499288Y-121390392D01*
X119400489Y-121660373D01*
X119339245Y-121941264D01*
X119316689Y-122227869D01*
X112111918Y-122227869D01*
X112093873Y-121963175D01*
X112089336Y-121941264D01*
X112036443Y-121685855D01*
X112035574Y-121681658D01*
X111939607Y-121410657D01*
X111807750Y-121155188D01*
X111794488Y-121136317D01*
X111644904Y-120923482D01*
X111642441Y-120919977D01*
X111446740Y-120709378D01*
X111224268Y-120527287D01*
X110979142Y-120377073D01*
X110961048Y-120369130D01*
X110719830Y-120263243D01*
X110715898Y-120261517D01*
X110689963Y-120254129D01*
X110443534Y-120183932D01*
X110443535Y-120183932D01*
X110439406Y-120182756D01*
X110226704Y-120152485D01*
X110159036Y-120142854D01*
X110159034Y-120142854D01*
X110154784Y-120142249D01*
X110150495Y-120142227D01*
X110150488Y-120142226D01*
X109871583Y-120140765D01*
X109871576Y-120140765D01*
X109867297Y-120140743D01*
X109863053Y-120141302D01*
X109863049Y-120141302D01*
X109737660Y-120157810D01*
X109582266Y-120178268D01*
X109578126Y-120179401D01*
X109578124Y-120179401D01*
X109501311Y-120200415D01*
X109304964Y-120254129D01*
X109301016Y-120255813D01*
X109044476Y-120365237D01*
X109044472Y-120365239D01*
X109040524Y-120366923D01*
X108915960Y-120441473D01*
X108797521Y-120512357D01*
X108797517Y-120512360D01*
X108793839Y-120514561D01*
X108569472Y-120694313D01*
X108371577Y-120902851D01*
X108203814Y-121136317D01*
X108069288Y-121390392D01*
X107970489Y-121660373D01*
X107909245Y-121941264D01*
X107886689Y-122227869D01*
X100508000Y-122227869D01*
X100508000Y-103549328D01*
X100509500Y-103529943D01*
X100511805Y-103515142D01*
X100511805Y-103515139D01*
X100513186Y-103506270D01*
X100512022Y-103497369D01*
X100512022Y-103497365D01*
X100510743Y-103487589D01*
X100509852Y-103464657D01*
X100511107Y-103440702D01*
X101613122Y-103440702D01*
X101613297Y-103445154D01*
X101622261Y-103673295D01*
X101623591Y-103707158D01*
X101624391Y-103711538D01*
X101665801Y-103938277D01*
X101671499Y-103969479D01*
X101755891Y-104222434D01*
X101757881Y-104226417D01*
X101757882Y-104226419D01*
X101867727Y-104446251D01*
X101875083Y-104460973D01*
X101877610Y-104464629D01*
X101877611Y-104464631D01*
X101977824Y-104609627D01*
X102026696Y-104680339D01*
X102029718Y-104683608D01*
X102204689Y-104872892D01*
X102204694Y-104872897D01*
X102207705Y-104876154D01*
X102414499Y-105044511D01*
X102418317Y-105046810D01*
X102418319Y-105046811D01*
X102568679Y-105137335D01*
X102642952Y-105182051D01*
X102647047Y-105183785D01*
X102647049Y-105183786D01*
X102884404Y-105284293D01*
X102884411Y-105284295D01*
X102888505Y-105286029D01*
X103146260Y-105354372D01*
X103150684Y-105354896D01*
X103150686Y-105354896D01*
X103255152Y-105367260D01*
X103411072Y-105385714D01*
X103677659Y-105379432D01*
X103828219Y-105354372D01*
X103936310Y-105336381D01*
X103936314Y-105336380D01*
X103940700Y-105335650D01*
X103944941Y-105334309D01*
X103944944Y-105334308D01*
X104190703Y-105256584D01*
X104190705Y-105256583D01*
X104194949Y-105255241D01*
X104198960Y-105253315D01*
X104198965Y-105253313D01*
X104267264Y-105220516D01*
X104337330Y-105209059D01*
X104402468Y-105237302D01*
X104441995Y-105296277D01*
X104443364Y-105367260D01*
X104410901Y-105423194D01*
X103407747Y-106426348D01*
X103399461Y-106433888D01*
X103392982Y-106438000D01*
X103387557Y-106443777D01*
X103346357Y-106487651D01*
X103343602Y-106490493D01*
X103323865Y-106510230D01*
X103321385Y-106513427D01*
X103313682Y-106522447D01*
X103283414Y-106554679D01*
X103279595Y-106561625D01*
X103279593Y-106561628D01*
X103273652Y-106572434D01*
X103262801Y-106588953D01*
X103250386Y-106604959D01*
X103247241Y-106612228D01*
X103247238Y-106612232D01*
X103232826Y-106645537D01*
X103227609Y-106656187D01*
X103206305Y-106694940D01*
X103204334Y-106702615D01*
X103204334Y-106702616D01*
X103201267Y-106714562D01*
X103194863Y-106733266D01*
X103186819Y-106751855D01*
X103185580Y-106759678D01*
X103185577Y-106759688D01*
X103179901Y-106795524D01*
X103177495Y-106807144D01*
X103166500Y-106849970D01*
X103166500Y-106870224D01*
X103164949Y-106889934D01*
X103161780Y-106909943D01*
X103162526Y-106917835D01*
X103165941Y-106953961D01*
X103166500Y-106965819D01*
X103166500Y-108010629D01*
X103146498Y-108078750D01*
X103092842Y-108125243D01*
X103049490Y-108136307D01*
X102976889Y-108141500D01*
X102897382Y-108164845D01*
X102845235Y-108180157D01*
X102845233Y-108180158D01*
X102836589Y-108182696D01*
X102829010Y-108187567D01*
X102721159Y-108256878D01*
X102721156Y-108256880D01*
X102713579Y-108261750D01*
X102707678Y-108268560D01*
X102623726Y-108365445D01*
X102623724Y-108365448D01*
X102617824Y-108372257D01*
X102557081Y-108505266D01*
X102536271Y-108650000D01*
X102536271Y-109800000D01*
X102542800Y-109881645D01*
X102544890Y-109888343D01*
X102544890Y-109888345D01*
X102551328Y-109908981D01*
X102555762Y-109964438D01*
X102549194Y-110010121D01*
X102536271Y-110100000D01*
X102536271Y-111100000D01*
X102541500Y-111173111D01*
X102557902Y-111228971D01*
X102578788Y-111300100D01*
X102582696Y-111313411D01*
X102600557Y-111341203D01*
X102656878Y-111428841D01*
X102656880Y-111428844D01*
X102661750Y-111436421D01*
X102668560Y-111442322D01*
X102765445Y-111526274D01*
X102765448Y-111526276D01*
X102772257Y-111532176D01*
X102905266Y-111592919D01*
X102914189Y-111594202D01*
X102930100Y-111596490D01*
X103050000Y-111613729D01*
X104550000Y-111613729D01*
X104581986Y-111611441D01*
X104616373Y-111608982D01*
X104616374Y-111608982D01*
X104623111Y-111608500D01*
X104714976Y-111581526D01*
X104754765Y-111569843D01*
X104754767Y-111569842D01*
X104763411Y-111567304D01*
X104827255Y-111526274D01*
X104878841Y-111493122D01*
X104878844Y-111493120D01*
X104886421Y-111488250D01*
X104914244Y-111456141D01*
X104976274Y-111384555D01*
X104976276Y-111384552D01*
X104982176Y-111377743D01*
X105014411Y-111307158D01*
X105060904Y-111253502D01*
X105129025Y-111233500D01*
X112005406Y-111233500D01*
X112073527Y-111253502D01*
X112094501Y-111270405D01*
X112712510Y-111888414D01*
X112746536Y-111950726D01*
X112741471Y-112021541D01*
X112698924Y-112078377D01*
X112632404Y-112103188D01*
X112612434Y-112103030D01*
X112545475Y-112097172D01*
X112540000Y-112096693D01*
X112320629Y-112115885D01*
X112107924Y-112172880D01*
X112040784Y-112204188D01*
X111913334Y-112263618D01*
X111913329Y-112263621D01*
X111908347Y-112265944D01*
X111903840Y-112269100D01*
X111903838Y-112269101D01*
X111732473Y-112389092D01*
X111732470Y-112389094D01*
X111727962Y-112392251D01*
X111572251Y-112547962D01*
X111569094Y-112552470D01*
X111569092Y-112552473D01*
X111449101Y-112723838D01*
X111445944Y-112728347D01*
X111443621Y-112733329D01*
X111443618Y-112733334D01*
X111396756Y-112833831D01*
X111352880Y-112927924D01*
X111295885Y-113140629D01*
X111276693Y-113360000D01*
X111295885Y-113579371D01*
X111352880Y-113792076D01*
X111374635Y-113838730D01*
X111443618Y-113986666D01*
X111443621Y-113986671D01*
X111445944Y-113991653D01*
X111449100Y-113996160D01*
X111449101Y-113996162D01*
X111550463Y-114140921D01*
X111572251Y-114172038D01*
X111727962Y-114327749D01*
X111732471Y-114330906D01*
X111732473Y-114330908D01*
X111848694Y-114412287D01*
X111893022Y-114467744D01*
X111900331Y-114538364D01*
X111868300Y-114601724D01*
X111807099Y-114637709D01*
X111776423Y-114641500D01*
X110471866Y-114641500D01*
X110409684Y-114648255D01*
X110273295Y-114699385D01*
X110156739Y-114786739D01*
X110069385Y-114903295D01*
X110018255Y-115039684D01*
X110011500Y-115101866D01*
X110011500Y-116698134D01*
X110018255Y-116760316D01*
X110069385Y-116896705D01*
X110156739Y-117013261D01*
X110273295Y-117100615D01*
X110409684Y-117151745D01*
X110471866Y-117158500D01*
X111580406Y-117158500D01*
X111648527Y-117178502D01*
X111669501Y-117195405D01*
X111966343Y-117492247D01*
X111973887Y-117500537D01*
X111978000Y-117507018D01*
X111983777Y-117512443D01*
X112027667Y-117553658D01*
X112030509Y-117556413D01*
X112050230Y-117576134D01*
X112053425Y-117578612D01*
X112062447Y-117586318D01*
X112094679Y-117616586D01*
X112101628Y-117620406D01*
X112112432Y-117626346D01*
X112128956Y-117637199D01*
X112144959Y-117649613D01*
X112185543Y-117667176D01*
X112196173Y-117672383D01*
X112234940Y-117693695D01*
X112242617Y-117695666D01*
X112242622Y-117695668D01*
X112254558Y-117698732D01*
X112273266Y-117705137D01*
X112291855Y-117713181D01*
X112299683Y-117714421D01*
X112299690Y-117714423D01*
X112335524Y-117720099D01*
X112347144Y-117722505D01*
X112378959Y-117730673D01*
X112389970Y-117733500D01*
X112410224Y-117733500D01*
X112429934Y-117735051D01*
X112449943Y-117738220D01*
X112457835Y-117737474D01*
X112476580Y-117735702D01*
X112493962Y-117734059D01*
X112505819Y-117733500D01*
X127438733Y-117733500D01*
X127449916Y-117734027D01*
X127457409Y-117735702D01*
X127465335Y-117735453D01*
X127465336Y-117735453D01*
X127525486Y-117733562D01*
X127529445Y-117733500D01*
X127557356Y-117733500D01*
X127561291Y-117733003D01*
X127561356Y-117732995D01*
X127573193Y-117732062D01*
X127605451Y-117731048D01*
X127609470Y-117730922D01*
X127617389Y-117730673D01*
X127636843Y-117725021D01*
X127656200Y-117721013D01*
X127668430Y-117719468D01*
X127668431Y-117719468D01*
X127676297Y-117718474D01*
X127683668Y-117715555D01*
X127683670Y-117715555D01*
X127717412Y-117702196D01*
X127728642Y-117698351D01*
X127763483Y-117688229D01*
X127763484Y-117688229D01*
X127771093Y-117686018D01*
X127777912Y-117681985D01*
X127777917Y-117681983D01*
X127788528Y-117675707D01*
X127806276Y-117667012D01*
X127825117Y-117659552D01*
X127845487Y-117644753D01*
X127860887Y-117633564D01*
X127870807Y-117627048D01*
X127902035Y-117608580D01*
X127902038Y-117608578D01*
X127908862Y-117604542D01*
X127923183Y-117590221D01*
X127938217Y-117577380D01*
X127939932Y-117576134D01*
X127954607Y-117565472D01*
X127982798Y-117531395D01*
X127990788Y-117522616D01*
X128317999Y-117195405D01*
X128380311Y-117161379D01*
X128407094Y-117158500D01*
X129027906Y-117158500D01*
X129096027Y-117178502D01*
X129117001Y-117195405D01*
X129413843Y-117492247D01*
X129421387Y-117500537D01*
X129425500Y-117507018D01*
X129431277Y-117512443D01*
X129475167Y-117553658D01*
X129478009Y-117556413D01*
X129497730Y-117576134D01*
X129500925Y-117578612D01*
X129509947Y-117586318D01*
X129542179Y-117616586D01*
X129549128Y-117620406D01*
X129559932Y-117626346D01*
X129576456Y-117637199D01*
X129592459Y-117649613D01*
X129633043Y-117667176D01*
X129643673Y-117672383D01*
X129682440Y-117693695D01*
X129690117Y-117695666D01*
X129690122Y-117695668D01*
X129702058Y-117698732D01*
X129720766Y-117705137D01*
X129739355Y-117713181D01*
X129747183Y-117714421D01*
X129747190Y-117714423D01*
X129783024Y-117720099D01*
X129794644Y-117722505D01*
X129826459Y-117730673D01*
X129837470Y-117733500D01*
X129857724Y-117733500D01*
X129877434Y-117735051D01*
X129897443Y-117738220D01*
X129905335Y-117737474D01*
X129924080Y-117735702D01*
X129941462Y-117734059D01*
X129953319Y-117733500D01*
X136771233Y-117733500D01*
X136782416Y-117734027D01*
X136789909Y-117735702D01*
X136797835Y-117735453D01*
X136797836Y-117735453D01*
X136857986Y-117733562D01*
X136861945Y-117733500D01*
X136889856Y-117733500D01*
X136893791Y-117733003D01*
X136893856Y-117732995D01*
X136905693Y-117732062D01*
X136937951Y-117731048D01*
X136941970Y-117730922D01*
X136949889Y-117730673D01*
X136969343Y-117725021D01*
X136988700Y-117721013D01*
X137000930Y-117719468D01*
X137000931Y-117719468D01*
X137008797Y-117718474D01*
X137016168Y-117715555D01*
X137016170Y-117715555D01*
X137049912Y-117702196D01*
X137061142Y-117698351D01*
X137095983Y-117688229D01*
X137095984Y-117688229D01*
X137103593Y-117686018D01*
X137110412Y-117681985D01*
X137110417Y-117681983D01*
X137121028Y-117675707D01*
X137138776Y-117667012D01*
X137157617Y-117659552D01*
X137177987Y-117644753D01*
X137193387Y-117633564D01*
X137203307Y-117627048D01*
X137234535Y-117608580D01*
X137234538Y-117608578D01*
X137241362Y-117604542D01*
X137255683Y-117590221D01*
X137270717Y-117577380D01*
X137272432Y-117576134D01*
X137287107Y-117565472D01*
X137315298Y-117531395D01*
X137323288Y-117522616D01*
X139192247Y-115653657D01*
X139200537Y-115646113D01*
X139207018Y-115642000D01*
X139253659Y-115592332D01*
X139256413Y-115589491D01*
X139276134Y-115569770D01*
X139278612Y-115566575D01*
X139286318Y-115557553D01*
X139311158Y-115531101D01*
X139316586Y-115525321D01*
X139326346Y-115507568D01*
X139337199Y-115491045D01*
X139344753Y-115481306D01*
X139349613Y-115475041D01*
X139367176Y-115434457D01*
X139372383Y-115423827D01*
X139393695Y-115385060D01*
X139395666Y-115377383D01*
X139395668Y-115377378D01*
X139398732Y-115365442D01*
X139405138Y-115346730D01*
X139410034Y-115335417D01*
X139413181Y-115328145D01*
X139415620Y-115312750D01*
X139420097Y-115284481D01*
X139422504Y-115272860D01*
X139431528Y-115237711D01*
X139431528Y-115237710D01*
X139433500Y-115230030D01*
X139433500Y-115209769D01*
X139435051Y-115190058D01*
X139436979Y-115177885D01*
X139438219Y-115170057D01*
X139434059Y-115126046D01*
X139433500Y-115114189D01*
X139433500Y-113078767D01*
X139434027Y-113067584D01*
X139435702Y-113060091D01*
X139433562Y-112992000D01*
X139433500Y-112988043D01*
X139433500Y-112960144D01*
X139432996Y-112956153D01*
X139432063Y-112944311D01*
X139431743Y-112934106D01*
X139430674Y-112900111D01*
X139428462Y-112892497D01*
X139428461Y-112892492D01*
X139425023Y-112880659D01*
X139421012Y-112861295D01*
X139419467Y-112849064D01*
X139418474Y-112841203D01*
X139415557Y-112833836D01*
X139415556Y-112833831D01*
X139402198Y-112800092D01*
X139398354Y-112788865D01*
X139388230Y-112754022D01*
X139386018Y-112746407D01*
X139378434Y-112733583D01*
X139375707Y-112728972D01*
X139367012Y-112711224D01*
X139359552Y-112692383D01*
X139333564Y-112656613D01*
X139327048Y-112646693D01*
X139308580Y-112615465D01*
X139308578Y-112615462D01*
X139304542Y-112608638D01*
X139290221Y-112594317D01*
X139277380Y-112579283D01*
X139270131Y-112569306D01*
X139265472Y-112562893D01*
X139231395Y-112534702D01*
X139222616Y-112526712D01*
X132753652Y-106057747D01*
X132746112Y-106049461D01*
X132742000Y-106042982D01*
X132692348Y-105996356D01*
X132689507Y-105993602D01*
X132669770Y-105973865D01*
X132666573Y-105971385D01*
X132657551Y-105963680D01*
X132635251Y-105942739D01*
X132625321Y-105933414D01*
X132618375Y-105929595D01*
X132618372Y-105929593D01*
X132607566Y-105923652D01*
X132591047Y-105912801D01*
X132590583Y-105912441D01*
X132575041Y-105900386D01*
X132567772Y-105897241D01*
X132567768Y-105897238D01*
X132534463Y-105882826D01*
X132523813Y-105877609D01*
X132485060Y-105856305D01*
X132466886Y-105851639D01*
X132405881Y-105815326D01*
X132374192Y-105751794D01*
X132381880Y-105681215D01*
X132398629Y-105653872D01*
X132398096Y-105653489D01*
X132528453Y-105472077D01*
X132529776Y-105473028D01*
X132576645Y-105429857D01*
X132646580Y-105417625D01*
X132712026Y-105445144D01*
X132739875Y-105476994D01*
X132799987Y-105575088D01*
X132946250Y-105743938D01*
X133118126Y-105886632D01*
X133311000Y-105999338D01*
X133519692Y-106079030D01*
X133524760Y-106080061D01*
X133524763Y-106080062D01*
X133619862Y-106099410D01*
X133738597Y-106123567D01*
X133743772Y-106123757D01*
X133743774Y-106123757D01*
X133956673Y-106131564D01*
X133956677Y-106131564D01*
X133961837Y-106131753D01*
X133966957Y-106131097D01*
X133966959Y-106131097D01*
X134178288Y-106104025D01*
X134178289Y-106104025D01*
X134183416Y-106103368D01*
X134188366Y-106101883D01*
X134392429Y-106040661D01*
X134392434Y-106040659D01*
X134397384Y-106039174D01*
X134597994Y-105940896D01*
X134779860Y-105811173D01*
X134938096Y-105653489D01*
X135068453Y-105472077D01*
X135069776Y-105473028D01*
X135116645Y-105429857D01*
X135186580Y-105417625D01*
X135252026Y-105445144D01*
X135279875Y-105476994D01*
X135339987Y-105575088D01*
X135486250Y-105743938D01*
X135658126Y-105886632D01*
X135851000Y-105999338D01*
X136059692Y-106079030D01*
X136064760Y-106080061D01*
X136064763Y-106080062D01*
X136159862Y-106099410D01*
X136278597Y-106123567D01*
X136283772Y-106123757D01*
X136283774Y-106123757D01*
X136496673Y-106131564D01*
X136496677Y-106131564D01*
X136501837Y-106131753D01*
X136506957Y-106131097D01*
X136506959Y-106131097D01*
X136718288Y-106104025D01*
X136718289Y-106104025D01*
X136723416Y-106103368D01*
X136728366Y-106101883D01*
X136932429Y-106040661D01*
X136932434Y-106040659D01*
X136937384Y-106039174D01*
X137137994Y-105940896D01*
X137319860Y-105811173D01*
X137478096Y-105653489D01*
X137608453Y-105472077D01*
X137609640Y-105472930D01*
X137656960Y-105429362D01*
X137726897Y-105417145D01*
X137792338Y-105444678D01*
X137820166Y-105476511D01*
X137877694Y-105570388D01*
X137883777Y-105578699D01*
X138023213Y-105739667D01*
X138030580Y-105746883D01*
X138194434Y-105882916D01*
X138202881Y-105888831D01*
X138386756Y-105996279D01*
X138396042Y-106000729D01*
X138595001Y-106076703D01*
X138604899Y-106079579D01*
X138708250Y-106100606D01*
X138722299Y-106099410D01*
X138726000Y-106089065D01*
X138726000Y-104642000D01*
X138746002Y-104573879D01*
X138799658Y-104527386D01*
X138852000Y-104516000D01*
X139108000Y-104516000D01*
X139176121Y-104536002D01*
X139222614Y-104589658D01*
X139234000Y-104642000D01*
X139234000Y-106088517D01*
X139238064Y-106102359D01*
X139251478Y-106104393D01*
X139258184Y-106103534D01*
X139268262Y-106101392D01*
X139472255Y-106040191D01*
X139481842Y-106036433D01*
X139673095Y-105942739D01*
X139681945Y-105937464D01*
X139855328Y-105813792D01*
X139863200Y-105807139D01*
X140014052Y-105656812D01*
X140020730Y-105648965D01*
X140148022Y-105471819D01*
X140149279Y-105472722D01*
X140196373Y-105429362D01*
X140266311Y-105417145D01*
X140331751Y-105444678D01*
X140359579Y-105476511D01*
X140419987Y-105575088D01*
X140566250Y-105743938D01*
X140738126Y-105886632D01*
X140931000Y-105999338D01*
X141139692Y-106079030D01*
X141144760Y-106080061D01*
X141144763Y-106080062D01*
X141239862Y-106099410D01*
X141358597Y-106123567D01*
X141363772Y-106123757D01*
X141363774Y-106123757D01*
X141576673Y-106131564D01*
X141576677Y-106131564D01*
X141581837Y-106131753D01*
X141586957Y-106131097D01*
X141586959Y-106131097D01*
X141798288Y-106104025D01*
X141798289Y-106104025D01*
X141803416Y-106103368D01*
X141808366Y-106101883D01*
X142012429Y-106040661D01*
X142012434Y-106040659D01*
X142017384Y-106039174D01*
X142217994Y-105940896D01*
X142399860Y-105811173D01*
X142558096Y-105653489D01*
X142688453Y-105472077D01*
X142689776Y-105473028D01*
X142736645Y-105429857D01*
X142806580Y-105417625D01*
X142872026Y-105445144D01*
X142899875Y-105476994D01*
X142959987Y-105575088D01*
X143106250Y-105743938D01*
X143278126Y-105886632D01*
X143471000Y-105999338D01*
X143679692Y-106079030D01*
X143684760Y-106080061D01*
X143684763Y-106080062D01*
X143779862Y-106099410D01*
X143898597Y-106123567D01*
X143903772Y-106123757D01*
X143903774Y-106123757D01*
X144116673Y-106131564D01*
X144116677Y-106131564D01*
X144121837Y-106131753D01*
X144126957Y-106131097D01*
X144126959Y-106131097D01*
X144338288Y-106104025D01*
X144338289Y-106104025D01*
X144343416Y-106103368D01*
X144348366Y-106101883D01*
X144552429Y-106040661D01*
X144552434Y-106040659D01*
X144557384Y-106039174D01*
X144757994Y-105940896D01*
X144939860Y-105811173D01*
X145098096Y-105653489D01*
X145228453Y-105472077D01*
X145229776Y-105473028D01*
X145276645Y-105429857D01*
X145346580Y-105417625D01*
X145412026Y-105445144D01*
X145439875Y-105476994D01*
X145499987Y-105575088D01*
X145646250Y-105743938D01*
X145818126Y-105886632D01*
X146011000Y-105999338D01*
X146219692Y-106079030D01*
X146224760Y-106080061D01*
X146224763Y-106080062D01*
X146319862Y-106099410D01*
X146438597Y-106123567D01*
X146443772Y-106123757D01*
X146443774Y-106123757D01*
X146656673Y-106131564D01*
X146656677Y-106131564D01*
X146661837Y-106131753D01*
X146666957Y-106131097D01*
X146666959Y-106131097D01*
X146878288Y-106104025D01*
X146878289Y-106104025D01*
X146883416Y-106103368D01*
X146888366Y-106101883D01*
X147092429Y-106040661D01*
X147092434Y-106040659D01*
X147097384Y-106039174D01*
X147297994Y-105940896D01*
X147479860Y-105811173D01*
X147638096Y-105653489D01*
X147768453Y-105472077D01*
X147769776Y-105473028D01*
X147816645Y-105429857D01*
X147886580Y-105417625D01*
X147952026Y-105445144D01*
X147979875Y-105476994D01*
X148039987Y-105575088D01*
X148186250Y-105743938D01*
X148358126Y-105886632D01*
X148551000Y-105999338D01*
X148759692Y-106079030D01*
X148764760Y-106080061D01*
X148764763Y-106080062D01*
X148859862Y-106099410D01*
X148978597Y-106123567D01*
X148983772Y-106123757D01*
X148983774Y-106123757D01*
X149196673Y-106131564D01*
X149196677Y-106131564D01*
X149201837Y-106131753D01*
X149206957Y-106131097D01*
X149206959Y-106131097D01*
X149418288Y-106104025D01*
X149418289Y-106104025D01*
X149423416Y-106103368D01*
X149428366Y-106101883D01*
X149632429Y-106040661D01*
X149632434Y-106040659D01*
X149637384Y-106039174D01*
X149837994Y-105940896D01*
X150019860Y-105811173D01*
X150178096Y-105653489D01*
X150308453Y-105472077D01*
X150309776Y-105473028D01*
X150356645Y-105429857D01*
X150426580Y-105417625D01*
X150492026Y-105445144D01*
X150519875Y-105476994D01*
X150579987Y-105575088D01*
X150726250Y-105743938D01*
X150898126Y-105886632D01*
X151091000Y-105999338D01*
X151299692Y-106079030D01*
X151304760Y-106080061D01*
X151304763Y-106080062D01*
X151399862Y-106099410D01*
X151518597Y-106123567D01*
X151523772Y-106123757D01*
X151523774Y-106123757D01*
X151736673Y-106131564D01*
X151736677Y-106131564D01*
X151741837Y-106131753D01*
X151746957Y-106131097D01*
X151746959Y-106131097D01*
X151958288Y-106104025D01*
X151958289Y-106104025D01*
X151963416Y-106103368D01*
X151968366Y-106101883D01*
X152172429Y-106040661D01*
X152172434Y-106040659D01*
X152177384Y-106039174D01*
X152377994Y-105940896D01*
X152559860Y-105811173D01*
X152718096Y-105653489D01*
X152848453Y-105472077D01*
X152849776Y-105473028D01*
X152896645Y-105429857D01*
X152966580Y-105417625D01*
X153032026Y-105445144D01*
X153059875Y-105476994D01*
X153119987Y-105575088D01*
X153266250Y-105743938D01*
X153438126Y-105886632D01*
X153631000Y-105999338D01*
X153839692Y-106079030D01*
X153844760Y-106080061D01*
X153844763Y-106080062D01*
X153939862Y-106099410D01*
X154058597Y-106123567D01*
X154063772Y-106123757D01*
X154063774Y-106123757D01*
X154276673Y-106131564D01*
X154276677Y-106131564D01*
X154281837Y-106131753D01*
X154286957Y-106131097D01*
X154286959Y-106131097D01*
X154498288Y-106104025D01*
X154498289Y-106104025D01*
X154503416Y-106103368D01*
X154508366Y-106101883D01*
X154712429Y-106040661D01*
X154712434Y-106040659D01*
X154717384Y-106039174D01*
X154917994Y-105940896D01*
X155099860Y-105811173D01*
X155258096Y-105653489D01*
X155388453Y-105472077D01*
X155389640Y-105472930D01*
X155436960Y-105429362D01*
X155506897Y-105417145D01*
X155572338Y-105444678D01*
X155600166Y-105476511D01*
X155657694Y-105570388D01*
X155663777Y-105578699D01*
X155803213Y-105739667D01*
X155810580Y-105746883D01*
X155974434Y-105882916D01*
X155982881Y-105888831D01*
X156166756Y-105996279D01*
X156176042Y-106000729D01*
X156375001Y-106076703D01*
X156384899Y-106079579D01*
X156488250Y-106100606D01*
X156502299Y-106099410D01*
X156506000Y-106089065D01*
X156506000Y-105037548D01*
X157014000Y-105037548D01*
X157014000Y-106088517D01*
X157018064Y-106102359D01*
X157031478Y-106104393D01*
X157038184Y-106103534D01*
X157048262Y-106101392D01*
X157252255Y-106040191D01*
X157261842Y-106036433D01*
X157453095Y-105942739D01*
X157461945Y-105937464D01*
X157635328Y-105813792D01*
X157643200Y-105807139D01*
X157794052Y-105656812D01*
X157800730Y-105648965D01*
X157925003Y-105476020D01*
X157930313Y-105467183D01*
X158024670Y-105276267D01*
X158028469Y-105266672D01*
X158090377Y-105062910D01*
X158092555Y-105052837D01*
X158093986Y-105041962D01*
X158091775Y-105027778D01*
X158078617Y-105024000D01*
X157032115Y-105024000D01*
X157016876Y-105028475D01*
X157015671Y-105029865D01*
X157014000Y-105037548D01*
X156506000Y-105037548D01*
X156506000Y-104642000D01*
X156526002Y-104573879D01*
X156579658Y-104527386D01*
X156632000Y-104516000D01*
X158078344Y-104516000D01*
X158091875Y-104512027D01*
X158093180Y-104502947D01*
X158051214Y-104335875D01*
X158047894Y-104326124D01*
X157962972Y-104130814D01*
X157958105Y-104121739D01*
X157842426Y-103942926D01*
X157836136Y-103934757D01*
X157692806Y-103777240D01*
X157685273Y-103770215D01*
X157518139Y-103638222D01*
X157509556Y-103632520D01*
X157472602Y-103612120D01*
X157422631Y-103561687D01*
X157407859Y-103492245D01*
X157427354Y-103440702D01*
X159613122Y-103440702D01*
X159613297Y-103445154D01*
X159622261Y-103673295D01*
X159623591Y-103707158D01*
X159624391Y-103711538D01*
X159665801Y-103938277D01*
X159671499Y-103969479D01*
X159755891Y-104222434D01*
X159757881Y-104226417D01*
X159757882Y-104226419D01*
X159867727Y-104446251D01*
X159875083Y-104460973D01*
X159877610Y-104464629D01*
X159877611Y-104464631D01*
X159977824Y-104609627D01*
X160026696Y-104680339D01*
X160029718Y-104683608D01*
X160204689Y-104872892D01*
X160204694Y-104872897D01*
X160207705Y-104876154D01*
X160414499Y-105044511D01*
X160418317Y-105046810D01*
X160418319Y-105046811D01*
X160568679Y-105137335D01*
X160642952Y-105182051D01*
X160647047Y-105183785D01*
X160647049Y-105183786D01*
X160884404Y-105284293D01*
X160884411Y-105284295D01*
X160888505Y-105286029D01*
X161146260Y-105354372D01*
X161150684Y-105354896D01*
X161150686Y-105354896D01*
X161255152Y-105367260D01*
X161411072Y-105385714D01*
X161677659Y-105379432D01*
X161828219Y-105354372D01*
X161936310Y-105336381D01*
X161936314Y-105336380D01*
X161940700Y-105335650D01*
X161944941Y-105334309D01*
X161944944Y-105334308D01*
X162190703Y-105256584D01*
X162190705Y-105256583D01*
X162194949Y-105255241D01*
X162198960Y-105253315D01*
X162198965Y-105253313D01*
X162431313Y-105141741D01*
X162431314Y-105141740D01*
X162435332Y-105139811D01*
X162550423Y-105062910D01*
X162653344Y-104994141D01*
X162653348Y-104994138D01*
X162657052Y-104991663D01*
X162855686Y-104813751D01*
X163027270Y-104609627D01*
X163078561Y-104527386D01*
X163166028Y-104387137D01*
X163168382Y-104383363D01*
X163205544Y-104299305D01*
X163274406Y-104143540D01*
X163276204Y-104139473D01*
X163348587Y-103882824D01*
X163358411Y-103809684D01*
X163383658Y-103621719D01*
X163383659Y-103621711D01*
X163384085Y-103618537D01*
X163384186Y-103615326D01*
X163387709Y-103503222D01*
X163387709Y-103503217D01*
X163387810Y-103500000D01*
X163386629Y-103483312D01*
X163369292Y-103238454D01*
X163368977Y-103234005D01*
X163312852Y-102973318D01*
X163299452Y-102936994D01*
X163222097Y-102727316D01*
X163220556Y-102723139D01*
X163218442Y-102719221D01*
X163096044Y-102492377D01*
X163093931Y-102488461D01*
X162935502Y-102273965D01*
X162888921Y-102226646D01*
X162751562Y-102087114D01*
X162748431Y-102083933D01*
X162744892Y-102081232D01*
X162744885Y-102081226D01*
X162539991Y-101924857D01*
X162536451Y-101922155D01*
X162479708Y-101890377D01*
X162307676Y-101794034D01*
X162307673Y-101794033D01*
X162303790Y-101791858D01*
X162299645Y-101790254D01*
X162299642Y-101790253D01*
X162096263Y-101711572D01*
X162055092Y-101695644D01*
X162050767Y-101694641D01*
X162050762Y-101694640D01*
X161908287Y-101661616D01*
X161795319Y-101635432D01*
X161529652Y-101612423D01*
X161525217Y-101612667D01*
X161525213Y-101612667D01*
X161267838Y-101626831D01*
X161267831Y-101626832D01*
X161263395Y-101627076D01*
X161001858Y-101679099D01*
X160750260Y-101767454D01*
X160513622Y-101890377D01*
X160510007Y-101892960D01*
X160510001Y-101892964D01*
X160388617Y-101979707D01*
X160296665Y-102045417D01*
X160256290Y-102083933D01*
X160132680Y-102201851D01*
X160103717Y-102229480D01*
X160100961Y-102232975D01*
X160100960Y-102232977D01*
X160050812Y-102296590D01*
X159938629Y-102438893D01*
X159909838Y-102488461D01*
X159806929Y-102665631D01*
X159806926Y-102665637D01*
X159804695Y-102669478D01*
X159803025Y-102673601D01*
X159709235Y-102905158D01*
X159704586Y-102916635D01*
X159690506Y-102973318D01*
X159654409Y-103118637D01*
X159640301Y-103175431D01*
X159630905Y-103267139D01*
X159617114Y-103401744D01*
X159613122Y-103440702D01*
X157427354Y-103440702D01*
X157432975Y-103425839D01*
X157460327Y-103399232D01*
X157527661Y-103351203D01*
X157639860Y-103271173D01*
X157798096Y-103113489D01*
X157928453Y-102932077D01*
X157933948Y-102920960D01*
X158025136Y-102736453D01*
X158025137Y-102736451D01*
X158027430Y-102731811D01*
X158059900Y-102624940D01*
X158090865Y-102523023D01*
X158090865Y-102523021D01*
X158092370Y-102518069D01*
X158121529Y-102296590D01*
X158123156Y-102230000D01*
X158104852Y-102007361D01*
X158050431Y-101790702D01*
X157961354Y-101585840D01*
X157840014Y-101398277D01*
X157689670Y-101233051D01*
X157685619Y-101229852D01*
X157685615Y-101229848D01*
X157518414Y-101097800D01*
X157518410Y-101097798D01*
X157514359Y-101094598D01*
X157491647Y-101082060D01*
X157462136Y-101065769D01*
X157318789Y-100986638D01*
X157313920Y-100984914D01*
X157313916Y-100984912D01*
X157113087Y-100913795D01*
X157113083Y-100913794D01*
X157108212Y-100912069D01*
X157103119Y-100911162D01*
X157103116Y-100911161D01*
X156893373Y-100873800D01*
X156893367Y-100873799D01*
X156888284Y-100872894D01*
X156814452Y-100871992D01*
X156670081Y-100870228D01*
X156670079Y-100870228D01*
X156664911Y-100870165D01*
X156444091Y-100903955D01*
X156231756Y-100973357D01*
X156033607Y-101076507D01*
X156029474Y-101079610D01*
X156029471Y-101079612D01*
X156005247Y-101097800D01*
X155854965Y-101210635D01*
X155700629Y-101372138D01*
X155593201Y-101529621D01*
X155538293Y-101574621D01*
X155467768Y-101582792D01*
X155404021Y-101551538D01*
X155383324Y-101527054D01*
X155302822Y-101402617D01*
X155302820Y-101402614D01*
X155300014Y-101398277D01*
X155149670Y-101233051D01*
X155145619Y-101229852D01*
X155145615Y-101229848D01*
X154978414Y-101097800D01*
X154978410Y-101097798D01*
X154974359Y-101094598D01*
X154951647Y-101082060D01*
X154922136Y-101065769D01*
X154778789Y-100986638D01*
X154773920Y-100984914D01*
X154773916Y-100984912D01*
X154573087Y-100913795D01*
X154573083Y-100913794D01*
X154568212Y-100912069D01*
X154563119Y-100911162D01*
X154563116Y-100911161D01*
X154353373Y-100873800D01*
X154353367Y-100873799D01*
X154348284Y-100872894D01*
X154274452Y-100871992D01*
X154130081Y-100870228D01*
X154130079Y-100870228D01*
X154124911Y-100870165D01*
X153904091Y-100903955D01*
X153691756Y-100973357D01*
X153493607Y-101076507D01*
X153489474Y-101079610D01*
X153489471Y-101079612D01*
X153465247Y-101097800D01*
X153314965Y-101210635D01*
X153160629Y-101372138D01*
X153053201Y-101529621D01*
X152998293Y-101574621D01*
X152927768Y-101582792D01*
X152864021Y-101551538D01*
X152843324Y-101527054D01*
X152762822Y-101402617D01*
X152762820Y-101402614D01*
X152760014Y-101398277D01*
X152609670Y-101233051D01*
X152605619Y-101229852D01*
X152605615Y-101229848D01*
X152438414Y-101097800D01*
X152438410Y-101097798D01*
X152434359Y-101094598D01*
X152411647Y-101082060D01*
X152382136Y-101065769D01*
X152238789Y-100986638D01*
X152233920Y-100984914D01*
X152233916Y-100984912D01*
X152033087Y-100913795D01*
X152033083Y-100913794D01*
X152028212Y-100912069D01*
X152023119Y-100911162D01*
X152023116Y-100911161D01*
X151813373Y-100873800D01*
X151813367Y-100873799D01*
X151808284Y-100872894D01*
X151734452Y-100871992D01*
X151590081Y-100870228D01*
X151590079Y-100870228D01*
X151584911Y-100870165D01*
X151364091Y-100903955D01*
X151151756Y-100973357D01*
X150953607Y-101076507D01*
X150949474Y-101079610D01*
X150949471Y-101079612D01*
X150925247Y-101097800D01*
X150774965Y-101210635D01*
X150620629Y-101372138D01*
X150513204Y-101529618D01*
X150512898Y-101530066D01*
X150457987Y-101575069D01*
X150387462Y-101583240D01*
X150323715Y-101551986D01*
X150303018Y-101527502D01*
X150222426Y-101402926D01*
X150216136Y-101394757D01*
X150072806Y-101237240D01*
X150065273Y-101230215D01*
X149898139Y-101098222D01*
X149889552Y-101092517D01*
X149703117Y-100989599D01*
X149693705Y-100985369D01*
X149492959Y-100914280D01*
X149482988Y-100911646D01*
X149411837Y-100898972D01*
X149398540Y-100900432D01*
X149394000Y-100914989D01*
X149394000Y-102358000D01*
X149373998Y-102426121D01*
X149320342Y-102472614D01*
X149268000Y-102484000D01*
X149012000Y-102484000D01*
X148943879Y-102463998D01*
X148897386Y-102410342D01*
X148886000Y-102358000D01*
X148886000Y-100913102D01*
X148882082Y-100899758D01*
X148867806Y-100897771D01*
X148829324Y-100903660D01*
X148819288Y-100906051D01*
X148616868Y-100972212D01*
X148607359Y-100976209D01*
X148418463Y-101074542D01*
X148409738Y-101080036D01*
X148239433Y-101207905D01*
X148231726Y-101214748D01*
X148084590Y-101368717D01*
X148078109Y-101376722D01*
X147973498Y-101530074D01*
X147918587Y-101575076D01*
X147848062Y-101583247D01*
X147784315Y-101551993D01*
X147763618Y-101527509D01*
X147682822Y-101402617D01*
X147682820Y-101402614D01*
X147680014Y-101398277D01*
X147529670Y-101233051D01*
X147525619Y-101229852D01*
X147525615Y-101229848D01*
X147358414Y-101097800D01*
X147358410Y-101097798D01*
X147354359Y-101094598D01*
X147331647Y-101082060D01*
X147302136Y-101065769D01*
X147158789Y-100986638D01*
X147153920Y-100984914D01*
X147153916Y-100984912D01*
X146953087Y-100913795D01*
X146953083Y-100913794D01*
X146948212Y-100912069D01*
X146943119Y-100911162D01*
X146943116Y-100911161D01*
X146733373Y-100873800D01*
X146733367Y-100873799D01*
X146728284Y-100872894D01*
X146654452Y-100871992D01*
X146510081Y-100870228D01*
X146510079Y-100870228D01*
X146504911Y-100870165D01*
X146284091Y-100903955D01*
X146071756Y-100973357D01*
X145873607Y-101076507D01*
X145869474Y-101079610D01*
X145869471Y-101079612D01*
X145845247Y-101097800D01*
X145694965Y-101210635D01*
X145540629Y-101372138D01*
X145433204Y-101529618D01*
X145432898Y-101530066D01*
X145377987Y-101575069D01*
X145307462Y-101583240D01*
X145243715Y-101551986D01*
X145223018Y-101527502D01*
X145142426Y-101402926D01*
X145136136Y-101394757D01*
X144992806Y-101237240D01*
X144985273Y-101230215D01*
X144818139Y-101098222D01*
X144809552Y-101092517D01*
X144623117Y-100989599D01*
X144613705Y-100985369D01*
X144412959Y-100914280D01*
X144402988Y-100911646D01*
X144331837Y-100898972D01*
X144318540Y-100900432D01*
X144314000Y-100914989D01*
X144314000Y-102358000D01*
X144293998Y-102426121D01*
X144240342Y-102472614D01*
X144188000Y-102484000D01*
X143932000Y-102484000D01*
X143863879Y-102463998D01*
X143817386Y-102410342D01*
X143806000Y-102358000D01*
X143806000Y-100913102D01*
X143802082Y-100899758D01*
X143787806Y-100897771D01*
X143749324Y-100903660D01*
X143739288Y-100906051D01*
X143536868Y-100972212D01*
X143527359Y-100976209D01*
X143338463Y-101074542D01*
X143329738Y-101080036D01*
X143159433Y-101207905D01*
X143151726Y-101214748D01*
X143004590Y-101368717D01*
X142998109Y-101376722D01*
X142893498Y-101530074D01*
X142838587Y-101575076D01*
X142768062Y-101583247D01*
X142704315Y-101551993D01*
X142683618Y-101527509D01*
X142602822Y-101402617D01*
X142602820Y-101402614D01*
X142600014Y-101398277D01*
X142449670Y-101233051D01*
X142445619Y-101229852D01*
X142445615Y-101229848D01*
X142278414Y-101097800D01*
X142278410Y-101097798D01*
X142274359Y-101094598D01*
X142251647Y-101082060D01*
X142222136Y-101065769D01*
X142078789Y-100986638D01*
X142073920Y-100984914D01*
X142073916Y-100984912D01*
X141873087Y-100913795D01*
X141873083Y-100913794D01*
X141868212Y-100912069D01*
X141863119Y-100911162D01*
X141863116Y-100911161D01*
X141653373Y-100873800D01*
X141653367Y-100873799D01*
X141648284Y-100872894D01*
X141574452Y-100871992D01*
X141430081Y-100870228D01*
X141430079Y-100870228D01*
X141424911Y-100870165D01*
X141204091Y-100903955D01*
X140991756Y-100973357D01*
X140793607Y-101076507D01*
X140789474Y-101079610D01*
X140789471Y-101079612D01*
X140765247Y-101097800D01*
X140614965Y-101210635D01*
X140460629Y-101372138D01*
X140353201Y-101529621D01*
X140298293Y-101574621D01*
X140227768Y-101582792D01*
X140164021Y-101551538D01*
X140143324Y-101527054D01*
X140062822Y-101402617D01*
X140062820Y-101402614D01*
X140060014Y-101398277D01*
X139909670Y-101233051D01*
X139905619Y-101229852D01*
X139905615Y-101229848D01*
X139738414Y-101097800D01*
X139738410Y-101097798D01*
X139734359Y-101094598D01*
X139711647Y-101082060D01*
X139682136Y-101065769D01*
X139538789Y-100986638D01*
X139533920Y-100984914D01*
X139533916Y-100984912D01*
X139333087Y-100913795D01*
X139333083Y-100913794D01*
X139328212Y-100912069D01*
X139323119Y-100911162D01*
X139323116Y-100911161D01*
X139113373Y-100873800D01*
X139113367Y-100873799D01*
X139108284Y-100872894D01*
X139034452Y-100871992D01*
X138890081Y-100870228D01*
X138890079Y-100870228D01*
X138884911Y-100870165D01*
X138664091Y-100903955D01*
X138451756Y-100973357D01*
X138253607Y-101076507D01*
X138249474Y-101079610D01*
X138249471Y-101079612D01*
X138225247Y-101097800D01*
X138074965Y-101210635D01*
X137920629Y-101372138D01*
X137813201Y-101529621D01*
X137758293Y-101574621D01*
X137687768Y-101582792D01*
X137624021Y-101551538D01*
X137603324Y-101527054D01*
X137522822Y-101402617D01*
X137522820Y-101402614D01*
X137520014Y-101398277D01*
X137369670Y-101233051D01*
X137365619Y-101229852D01*
X137365615Y-101229848D01*
X137198414Y-101097800D01*
X137198410Y-101097798D01*
X137194359Y-101094598D01*
X137171647Y-101082060D01*
X137142136Y-101065769D01*
X136998789Y-100986638D01*
X136993920Y-100984914D01*
X136993916Y-100984912D01*
X136793087Y-100913795D01*
X136793083Y-100913794D01*
X136788212Y-100912069D01*
X136783119Y-100911162D01*
X136783116Y-100911161D01*
X136573373Y-100873800D01*
X136573367Y-100873799D01*
X136568284Y-100872894D01*
X136494452Y-100871992D01*
X136350081Y-100870228D01*
X136350079Y-100870228D01*
X136344911Y-100870165D01*
X136124091Y-100903955D01*
X135911756Y-100973357D01*
X135713607Y-101076507D01*
X135709474Y-101079610D01*
X135709471Y-101079612D01*
X135685247Y-101097800D01*
X135534965Y-101210635D01*
X135380629Y-101372138D01*
X135273201Y-101529621D01*
X135218293Y-101574621D01*
X135147768Y-101582792D01*
X135084021Y-101551538D01*
X135063324Y-101527054D01*
X134982822Y-101402617D01*
X134982820Y-101402614D01*
X134980014Y-101398277D01*
X134829670Y-101233051D01*
X134825619Y-101229852D01*
X134825615Y-101229848D01*
X134658414Y-101097800D01*
X134658410Y-101097798D01*
X134654359Y-101094598D01*
X134631647Y-101082060D01*
X134602136Y-101065769D01*
X134458789Y-100986638D01*
X134453920Y-100984914D01*
X134453916Y-100984912D01*
X134253087Y-100913795D01*
X134253083Y-100913794D01*
X134248212Y-100912069D01*
X134243119Y-100911162D01*
X134243116Y-100911161D01*
X134033373Y-100873800D01*
X134033367Y-100873799D01*
X134028284Y-100872894D01*
X133954452Y-100871992D01*
X133810081Y-100870228D01*
X133810079Y-100870228D01*
X133804911Y-100870165D01*
X133584091Y-100903955D01*
X133371756Y-100973357D01*
X133173607Y-101076507D01*
X133169474Y-101079610D01*
X133169471Y-101079612D01*
X133145247Y-101097800D01*
X132994965Y-101210635D01*
X132840629Y-101372138D01*
X132733204Y-101529618D01*
X132732898Y-101530066D01*
X132677987Y-101575069D01*
X132607462Y-101583240D01*
X132543715Y-101551986D01*
X132523018Y-101527502D01*
X132442426Y-101402926D01*
X132436136Y-101394757D01*
X132292806Y-101237240D01*
X132285273Y-101230215D01*
X132118139Y-101098222D01*
X132109552Y-101092517D01*
X131923117Y-100989599D01*
X131913705Y-100985369D01*
X131712959Y-100914280D01*
X131702988Y-100911646D01*
X131631837Y-100898972D01*
X131618540Y-100900432D01*
X131614000Y-100914989D01*
X131614000Y-102358000D01*
X131593998Y-102426121D01*
X131540342Y-102472614D01*
X131488000Y-102484000D01*
X131232000Y-102484000D01*
X131163879Y-102463998D01*
X131117386Y-102410342D01*
X131106000Y-102358000D01*
X131106000Y-100913102D01*
X131102082Y-100899758D01*
X131087806Y-100897771D01*
X131049324Y-100903660D01*
X131039288Y-100906051D01*
X130836868Y-100972212D01*
X130827359Y-100976209D01*
X130638463Y-101074542D01*
X130629738Y-101080036D01*
X130459433Y-101207905D01*
X130451726Y-101214748D01*
X130304590Y-101368717D01*
X130298109Y-101376722D01*
X130193498Y-101530074D01*
X130138587Y-101575076D01*
X130068062Y-101583247D01*
X130004315Y-101551993D01*
X129983618Y-101527509D01*
X129902822Y-101402617D01*
X129902820Y-101402614D01*
X129900014Y-101398277D01*
X129749670Y-101233051D01*
X129745619Y-101229852D01*
X129745615Y-101229848D01*
X129578414Y-101097800D01*
X129578410Y-101097798D01*
X129574359Y-101094598D01*
X129551647Y-101082060D01*
X129522136Y-101065769D01*
X129378789Y-100986638D01*
X129373920Y-100984914D01*
X129373916Y-100984912D01*
X129173087Y-100913795D01*
X129173083Y-100913794D01*
X129168212Y-100912069D01*
X129163119Y-100911162D01*
X129163116Y-100911161D01*
X128953373Y-100873800D01*
X128953367Y-100873799D01*
X128948284Y-100872894D01*
X128874452Y-100871992D01*
X128730081Y-100870228D01*
X128730079Y-100870228D01*
X128724911Y-100870165D01*
X128504091Y-100903955D01*
X128291756Y-100973357D01*
X128093607Y-101076507D01*
X128089474Y-101079610D01*
X128089471Y-101079612D01*
X128065247Y-101097800D01*
X127914965Y-101210635D01*
X127760629Y-101372138D01*
X127653201Y-101529621D01*
X127598293Y-101574621D01*
X127527768Y-101582792D01*
X127464021Y-101551538D01*
X127443324Y-101527054D01*
X127362822Y-101402617D01*
X127362820Y-101402614D01*
X127360014Y-101398277D01*
X127209670Y-101233051D01*
X127205619Y-101229852D01*
X127205615Y-101229848D01*
X127038414Y-101097800D01*
X127038410Y-101097798D01*
X127034359Y-101094598D01*
X127011647Y-101082060D01*
X126982136Y-101065769D01*
X126838789Y-100986638D01*
X126833920Y-100984914D01*
X126833916Y-100984912D01*
X126633087Y-100913795D01*
X126633083Y-100913794D01*
X126628212Y-100912069D01*
X126623119Y-100911162D01*
X126623116Y-100911161D01*
X126413373Y-100873800D01*
X126413367Y-100873799D01*
X126408284Y-100872894D01*
X126334452Y-100871992D01*
X126190081Y-100870228D01*
X126190079Y-100870228D01*
X126184911Y-100870165D01*
X125964091Y-100903955D01*
X125751756Y-100973357D01*
X125553607Y-101076507D01*
X125549474Y-101079610D01*
X125549471Y-101079612D01*
X125525247Y-101097800D01*
X125374965Y-101210635D01*
X125220629Y-101372138D01*
X125113204Y-101529618D01*
X125112898Y-101530066D01*
X125057987Y-101575069D01*
X124987462Y-101583240D01*
X124923715Y-101551986D01*
X124903018Y-101527502D01*
X124822426Y-101402926D01*
X124816136Y-101394757D01*
X124672806Y-101237240D01*
X124665273Y-101230215D01*
X124498139Y-101098222D01*
X124489552Y-101092517D01*
X124303117Y-100989599D01*
X124293705Y-100985369D01*
X124092959Y-100914280D01*
X124082988Y-100911646D01*
X124011837Y-100898972D01*
X123998540Y-100900432D01*
X123994000Y-100914989D01*
X123994000Y-102358000D01*
X123973998Y-102426121D01*
X123920342Y-102472614D01*
X123868000Y-102484000D01*
X123612000Y-102484000D01*
X123543879Y-102463998D01*
X123497386Y-102410342D01*
X123486000Y-102358000D01*
X123486000Y-100913102D01*
X123482082Y-100899758D01*
X123467806Y-100897771D01*
X123429324Y-100903660D01*
X123419288Y-100906051D01*
X123216868Y-100972212D01*
X123207359Y-100976209D01*
X123018463Y-101074542D01*
X123009738Y-101080036D01*
X122839433Y-101207905D01*
X122831726Y-101214748D01*
X122684590Y-101368717D01*
X122678109Y-101376722D01*
X122573498Y-101530074D01*
X122518587Y-101575076D01*
X122448062Y-101583247D01*
X122384315Y-101551993D01*
X122363618Y-101527509D01*
X122282822Y-101402617D01*
X122282820Y-101402614D01*
X122280014Y-101398277D01*
X122129670Y-101233051D01*
X122125619Y-101229852D01*
X122125615Y-101229848D01*
X121958414Y-101097800D01*
X121958410Y-101097798D01*
X121954359Y-101094598D01*
X121931647Y-101082060D01*
X121902136Y-101065769D01*
X121758789Y-100986638D01*
X121753920Y-100984914D01*
X121753916Y-100984912D01*
X121553087Y-100913795D01*
X121553083Y-100913794D01*
X121548212Y-100912069D01*
X121543119Y-100911162D01*
X121543116Y-100911161D01*
X121333373Y-100873800D01*
X121333367Y-100873799D01*
X121328284Y-100872894D01*
X121254452Y-100871992D01*
X121110081Y-100870228D01*
X121110079Y-100870228D01*
X121104911Y-100870165D01*
X120884091Y-100903955D01*
X120671756Y-100973357D01*
X120473607Y-101076507D01*
X120469474Y-101079610D01*
X120469471Y-101079612D01*
X120445247Y-101097800D01*
X120294965Y-101210635D01*
X120140629Y-101372138D01*
X120033201Y-101529621D01*
X119978293Y-101574621D01*
X119907768Y-101582792D01*
X119844021Y-101551538D01*
X119823324Y-101527054D01*
X119742822Y-101402617D01*
X119742820Y-101402614D01*
X119740014Y-101398277D01*
X119589670Y-101233051D01*
X119585619Y-101229852D01*
X119585615Y-101229848D01*
X119418414Y-101097800D01*
X119418410Y-101097798D01*
X119414359Y-101094598D01*
X119391647Y-101082060D01*
X119362136Y-101065769D01*
X119218789Y-100986638D01*
X119213920Y-100984914D01*
X119213916Y-100984912D01*
X119013087Y-100913795D01*
X119013083Y-100913794D01*
X119008212Y-100912069D01*
X119003119Y-100911162D01*
X119003116Y-100911161D01*
X118793373Y-100873800D01*
X118793367Y-100873799D01*
X118788284Y-100872894D01*
X118714452Y-100871992D01*
X118570081Y-100870228D01*
X118570079Y-100870228D01*
X118564911Y-100870165D01*
X118344091Y-100903955D01*
X118131756Y-100973357D01*
X117933607Y-101076507D01*
X117929474Y-101079610D01*
X117929471Y-101079612D01*
X117905247Y-101097800D01*
X117754965Y-101210635D01*
X117600629Y-101372138D01*
X117493201Y-101529621D01*
X117438293Y-101574621D01*
X117367768Y-101582792D01*
X117304021Y-101551538D01*
X117283324Y-101527054D01*
X117202822Y-101402617D01*
X117202820Y-101402614D01*
X117200014Y-101398277D01*
X117049670Y-101233051D01*
X117045619Y-101229852D01*
X117045615Y-101229848D01*
X116878414Y-101097800D01*
X116878410Y-101097798D01*
X116874359Y-101094598D01*
X116851647Y-101082060D01*
X116822136Y-101065769D01*
X116678789Y-100986638D01*
X116673920Y-100984914D01*
X116673916Y-100984912D01*
X116473087Y-100913795D01*
X116473083Y-100913794D01*
X116468212Y-100912069D01*
X116463119Y-100911162D01*
X116463116Y-100911161D01*
X116253373Y-100873800D01*
X116253367Y-100873799D01*
X116248284Y-100872894D01*
X116174452Y-100871992D01*
X116030081Y-100870228D01*
X116030079Y-100870228D01*
X116024911Y-100870165D01*
X115804091Y-100903955D01*
X115591756Y-100973357D01*
X115393607Y-101076507D01*
X115389474Y-101079610D01*
X115389471Y-101079612D01*
X115365247Y-101097800D01*
X115214965Y-101210635D01*
X115060629Y-101372138D01*
X114953204Y-101529618D01*
X114952898Y-101530066D01*
X114897987Y-101575069D01*
X114827462Y-101583240D01*
X114763715Y-101551986D01*
X114743018Y-101527502D01*
X114662426Y-101402926D01*
X114656136Y-101394757D01*
X114512806Y-101237240D01*
X114505273Y-101230215D01*
X114338139Y-101098222D01*
X114329552Y-101092517D01*
X114143117Y-100989599D01*
X114133705Y-100985369D01*
X113932959Y-100914280D01*
X113922988Y-100911646D01*
X113851837Y-100898972D01*
X113838540Y-100900432D01*
X113834000Y-100914989D01*
X113834000Y-102358000D01*
X113813998Y-102426121D01*
X113760342Y-102472614D01*
X113708000Y-102484000D01*
X113452000Y-102484000D01*
X113383879Y-102463998D01*
X113337386Y-102410342D01*
X113326000Y-102358000D01*
X113326000Y-100913102D01*
X113322082Y-100899758D01*
X113307806Y-100897771D01*
X113269324Y-100903660D01*
X113259288Y-100906051D01*
X113056868Y-100972212D01*
X113047359Y-100976209D01*
X112858463Y-101074542D01*
X112849738Y-101080036D01*
X112679433Y-101207905D01*
X112671726Y-101214748D01*
X112524590Y-101368717D01*
X112518109Y-101376722D01*
X112413498Y-101530074D01*
X112358587Y-101575076D01*
X112288062Y-101583247D01*
X112224315Y-101551993D01*
X112203618Y-101527509D01*
X112122822Y-101402617D01*
X112122820Y-101402614D01*
X112120014Y-101398277D01*
X111969670Y-101233051D01*
X111965619Y-101229852D01*
X111965615Y-101229848D01*
X111798414Y-101097800D01*
X111798410Y-101097798D01*
X111794359Y-101094598D01*
X111771647Y-101082060D01*
X111742136Y-101065769D01*
X111598789Y-100986638D01*
X111593920Y-100984914D01*
X111593916Y-100984912D01*
X111393087Y-100913795D01*
X111393083Y-100913794D01*
X111388212Y-100912069D01*
X111383119Y-100911162D01*
X111383116Y-100911161D01*
X111173373Y-100873800D01*
X111173367Y-100873799D01*
X111168284Y-100872894D01*
X111094452Y-100871992D01*
X110950081Y-100870228D01*
X110950079Y-100870228D01*
X110944911Y-100870165D01*
X110724091Y-100903955D01*
X110511756Y-100973357D01*
X110313607Y-101076507D01*
X110309474Y-101079610D01*
X110309471Y-101079612D01*
X110285247Y-101097800D01*
X110134965Y-101210635D01*
X109980629Y-101372138D01*
X109873201Y-101529621D01*
X109818293Y-101574621D01*
X109747768Y-101582792D01*
X109684021Y-101551538D01*
X109663324Y-101527054D01*
X109582822Y-101402617D01*
X109582820Y-101402614D01*
X109580014Y-101398277D01*
X109429670Y-101233051D01*
X109425619Y-101229852D01*
X109425615Y-101229848D01*
X109258414Y-101097800D01*
X109258410Y-101097798D01*
X109254359Y-101094598D01*
X109231647Y-101082060D01*
X109202136Y-101065769D01*
X109058789Y-100986638D01*
X109053920Y-100984914D01*
X109053916Y-100984912D01*
X108853087Y-100913795D01*
X108853083Y-100913794D01*
X108848212Y-100912069D01*
X108843119Y-100911162D01*
X108843116Y-100911161D01*
X108633373Y-100873800D01*
X108633367Y-100873799D01*
X108628284Y-100872894D01*
X108554452Y-100871992D01*
X108410081Y-100870228D01*
X108410079Y-100870228D01*
X108404911Y-100870165D01*
X108184091Y-100903955D01*
X107971756Y-100973357D01*
X107773607Y-101076507D01*
X107769474Y-101079610D01*
X107769471Y-101079612D01*
X107745247Y-101097800D01*
X107594965Y-101210635D01*
X107440629Y-101372138D01*
X107314743Y-101556680D01*
X107281663Y-101627945D01*
X107231409Y-101736209D01*
X107220688Y-101759305D01*
X107160989Y-101974570D01*
X107137251Y-102196695D01*
X107137548Y-102201848D01*
X107137548Y-102201851D01*
X107143011Y-102296590D01*
X107150110Y-102419715D01*
X107151247Y-102424761D01*
X107151248Y-102424767D01*
X107183453Y-102567668D01*
X107178917Y-102638520D01*
X107149631Y-102684464D01*
X105421870Y-104412225D01*
X105359558Y-104446251D01*
X105288743Y-104441186D01*
X105231907Y-104398639D01*
X105207096Y-104332119D01*
X105217534Y-104272183D01*
X105274406Y-104143540D01*
X105276204Y-104139473D01*
X105348587Y-103882824D01*
X105358411Y-103809684D01*
X105383658Y-103621719D01*
X105383659Y-103621711D01*
X105384085Y-103618537D01*
X105384186Y-103615326D01*
X105387709Y-103503222D01*
X105387709Y-103503217D01*
X105387810Y-103500000D01*
X105386629Y-103483312D01*
X105369292Y-103238454D01*
X105368977Y-103234005D01*
X105312852Y-102973318D01*
X105299452Y-102936994D01*
X105222097Y-102727316D01*
X105220556Y-102723139D01*
X105218442Y-102719221D01*
X105096044Y-102492377D01*
X105093931Y-102488461D01*
X104935502Y-102273965D01*
X104888921Y-102226646D01*
X104751562Y-102087114D01*
X104748431Y-102083933D01*
X104744892Y-102081232D01*
X104744885Y-102081226D01*
X104539991Y-101924857D01*
X104536451Y-101922155D01*
X104479708Y-101890377D01*
X104307676Y-101794034D01*
X104307673Y-101794033D01*
X104303790Y-101791858D01*
X104299645Y-101790254D01*
X104299642Y-101790253D01*
X104096263Y-101711572D01*
X104055092Y-101695644D01*
X104050767Y-101694641D01*
X104050762Y-101694640D01*
X103908287Y-101661616D01*
X103795319Y-101635432D01*
X103529652Y-101612423D01*
X103525217Y-101612667D01*
X103525213Y-101612667D01*
X103267838Y-101626831D01*
X103267831Y-101626832D01*
X103263395Y-101627076D01*
X103001858Y-101679099D01*
X102750260Y-101767454D01*
X102513622Y-101890377D01*
X102510007Y-101892960D01*
X102510001Y-101892964D01*
X102388617Y-101979707D01*
X102296665Y-102045417D01*
X102256290Y-102083933D01*
X102132680Y-102201851D01*
X102103717Y-102229480D01*
X102100961Y-102232975D01*
X102100960Y-102232977D01*
X102050812Y-102296590D01*
X101938629Y-102438893D01*
X101909838Y-102488461D01*
X101806929Y-102665631D01*
X101806926Y-102665637D01*
X101804695Y-102669478D01*
X101803025Y-102673601D01*
X101709235Y-102905158D01*
X101704586Y-102916635D01*
X101690506Y-102973318D01*
X101654409Y-103118637D01*
X101640301Y-103175431D01*
X101630905Y-103267139D01*
X101617114Y-103401744D01*
X101613122Y-103440702D01*
X100511107Y-103440702D01*
X100524044Y-103193852D01*
X100525422Y-103180735D01*
X100536738Y-103109292D01*
X100572349Y-102884450D01*
X100575091Y-102871550D01*
X100652731Y-102581795D01*
X100656807Y-102569251D01*
X100674553Y-102523023D01*
X100764304Y-102289213D01*
X100769668Y-102277165D01*
X100905855Y-102009883D01*
X100912449Y-101998462D01*
X101075828Y-101746879D01*
X101083581Y-101736209D01*
X101272355Y-101503092D01*
X101281180Y-101493291D01*
X101493291Y-101281180D01*
X101503092Y-101272355D01*
X101736209Y-101083581D01*
X101746879Y-101075828D01*
X101998462Y-100912449D01*
X102009883Y-100905855D01*
X102277165Y-100769668D01*
X102289213Y-100764304D01*
X102321238Y-100752011D01*
X102569258Y-100656805D01*
X102581795Y-100652731D01*
X102871550Y-100575091D01*
X102884450Y-100572349D01*
X103180735Y-100525422D01*
X103193851Y-100524044D01*
X103457334Y-100510236D01*
X103483312Y-100511564D01*
X103484856Y-100511805D01*
X103484860Y-100511805D01*
X103493730Y-100513186D01*
X103502632Y-100512022D01*
X103502635Y-100512022D01*
X103525251Y-100509064D01*
X103541589Y-100508000D01*
X161450672Y-100508000D01*
X161470057Y-100509500D01*
G37*
%TD.AperFunction*%
%TA.AperFunction,Conductor*%
G36*
X129758098Y-105860109D02*
G01*
X129784279Y-105880183D01*
X130746343Y-106842247D01*
X130753887Y-106850537D01*
X130758000Y-106857018D01*
X130763777Y-106862443D01*
X130807667Y-106903658D01*
X130810509Y-106906413D01*
X130830231Y-106926135D01*
X130833355Y-106928558D01*
X130833359Y-106928562D01*
X130833424Y-106928612D01*
X130842445Y-106936317D01*
X130874679Y-106966586D01*
X130881627Y-106970405D01*
X130881629Y-106970407D01*
X130892432Y-106976346D01*
X130908959Y-106987202D01*
X130918698Y-106994757D01*
X130918700Y-106994758D01*
X130924960Y-106999614D01*
X130965540Y-107017174D01*
X130976188Y-107022391D01*
X131014940Y-107043695D01*
X131022616Y-107045666D01*
X131022619Y-107045667D01*
X131034562Y-107048733D01*
X131053267Y-107055137D01*
X131071855Y-107063181D01*
X131079678Y-107064420D01*
X131079688Y-107064423D01*
X131115524Y-107070099D01*
X131127144Y-107072505D01*
X131162289Y-107081528D01*
X131169970Y-107083500D01*
X131190224Y-107083500D01*
X131209934Y-107085051D01*
X131229943Y-107088220D01*
X131237835Y-107087474D01*
X131273961Y-107084059D01*
X131285819Y-107083500D01*
X131935406Y-107083500D01*
X132003527Y-107103502D01*
X132024501Y-107120405D01*
X136983884Y-112079789D01*
X137017910Y-112142101D01*
X137012845Y-112212916D01*
X136967060Y-112272097D01*
X136799973Y-112389092D01*
X136799970Y-112389094D01*
X136795462Y-112392251D01*
X136639751Y-112547962D01*
X136636594Y-112552470D01*
X136636592Y-112552473D01*
X136516601Y-112723838D01*
X136513444Y-112728347D01*
X136511121Y-112733329D01*
X136511118Y-112733334D01*
X136451419Y-112861360D01*
X136404502Y-112914645D01*
X136336224Y-112934106D01*
X136268264Y-112913564D01*
X136223029Y-112861360D01*
X136163446Y-112733583D01*
X136157966Y-112724093D01*
X136129089Y-112682851D01*
X136118613Y-112674477D01*
X136105166Y-112681545D01*
X135439521Y-113347189D01*
X135431908Y-113361132D01*
X135432039Y-113362966D01*
X135436290Y-113369580D01*
X136105891Y-114039180D01*
X136117661Y-114045607D01*
X136129676Y-114036311D01*
X136157966Y-113995907D01*
X136163446Y-113986417D01*
X136223029Y-113858640D01*
X136269946Y-113805355D01*
X136338224Y-113785894D01*
X136406184Y-113806436D01*
X136451419Y-113858640D01*
X136511118Y-113986666D01*
X136511121Y-113986671D01*
X136513444Y-113991653D01*
X136516600Y-113996160D01*
X136516601Y-113996162D01*
X136617963Y-114140921D01*
X136639751Y-114172038D01*
X136795462Y-114327749D01*
X136975846Y-114454056D01*
X137175424Y-114547120D01*
X137388129Y-114604115D01*
X137607500Y-114623307D01*
X137826871Y-114604115D01*
X138007888Y-114555611D01*
X138078865Y-114557301D01*
X138137661Y-114597095D01*
X138165609Y-114662359D01*
X138166500Y-114677318D01*
X138166500Y-114835405D01*
X138146498Y-114903526D01*
X138129595Y-114924500D01*
X137671436Y-115382659D01*
X137609124Y-115416685D01*
X137538309Y-115411620D01*
X137481473Y-115369073D01*
X137468146Y-115346814D01*
X137433882Y-115273334D01*
X137433879Y-115273329D01*
X137431556Y-115268347D01*
X137420826Y-115253023D01*
X137308408Y-115092473D01*
X137308406Y-115092470D01*
X137305249Y-115087962D01*
X137149538Y-114932251D01*
X137145026Y-114929091D01*
X137011228Y-114835405D01*
X136969154Y-114805944D01*
X136769576Y-114712880D01*
X136556871Y-114655885D01*
X136337500Y-114636693D01*
X136118129Y-114655885D01*
X135905424Y-114712880D01*
X135855560Y-114736132D01*
X135710834Y-114803618D01*
X135710829Y-114803621D01*
X135705847Y-114805944D01*
X135701340Y-114809100D01*
X135701338Y-114809101D01*
X135529973Y-114929092D01*
X135529970Y-114929094D01*
X135525462Y-114932251D01*
X135369751Y-115087962D01*
X135366594Y-115092470D01*
X135366592Y-115092473D01*
X135254174Y-115253023D01*
X135243444Y-115268347D01*
X135241121Y-115273329D01*
X135241118Y-115273334D01*
X135181695Y-115400769D01*
X135134778Y-115454054D01*
X135066501Y-115473515D01*
X134998541Y-115452973D01*
X134953305Y-115400769D01*
X134893882Y-115273334D01*
X134893879Y-115273329D01*
X134891556Y-115268347D01*
X134880826Y-115253023D01*
X134768408Y-115092473D01*
X134768406Y-115092470D01*
X134765249Y-115087962D01*
X134609538Y-114932251D01*
X134605026Y-114929091D01*
X134471228Y-114835405D01*
X134429154Y-114805944D01*
X134229576Y-114712880D01*
X134016871Y-114655885D01*
X134016952Y-114655582D01*
X133955857Y-114625300D01*
X133919389Y-114564384D01*
X133921644Y-114493424D01*
X133952257Y-114443649D01*
X134073068Y-114322838D01*
X134135380Y-114288812D01*
X134206195Y-114293877D01*
X134247358Y-114320331D01*
X134247685Y-114319941D01*
X134250742Y-114322507D01*
X134251258Y-114322838D01*
X134251888Y-114323468D01*
X134260296Y-114330524D01*
X134431588Y-114450464D01*
X134441084Y-114455947D01*
X134630613Y-114544326D01*
X134640905Y-114548072D01*
X134842901Y-114602196D01*
X134853696Y-114604099D01*
X135062025Y-114622326D01*
X135072975Y-114622326D01*
X135281304Y-114604099D01*
X135292099Y-114602196D01*
X135494095Y-114548072D01*
X135504387Y-114544326D01*
X135693916Y-114455947D01*
X135703412Y-114450464D01*
X135744648Y-114421590D01*
X135753023Y-114411113D01*
X135745955Y-114397667D01*
X134797384Y-113449095D01*
X134763359Y-113386783D01*
X134768424Y-113315967D01*
X134797385Y-113270905D01*
X135067500Y-113000790D01*
X135746676Y-112321613D01*
X135753106Y-112309838D01*
X135743810Y-112297824D01*
X135703412Y-112269536D01*
X135693916Y-112264053D01*
X135504387Y-112175674D01*
X135494095Y-112171928D01*
X135292099Y-112117804D01*
X135281304Y-112115901D01*
X135072975Y-112097674D01*
X135062025Y-112097674D01*
X134853696Y-112115901D01*
X134842901Y-112117804D01*
X134640905Y-112171928D01*
X134630608Y-112175676D01*
X134612751Y-112184003D01*
X134542559Y-112194665D01*
X134477746Y-112165686D01*
X134438890Y-112106266D01*
X134433500Y-112069809D01*
X134433500Y-111578763D01*
X134434027Y-111567579D01*
X134435701Y-111560091D01*
X134433562Y-111492032D01*
X134433500Y-111488075D01*
X134433500Y-111460144D01*
X134432994Y-111456138D01*
X134432061Y-111444292D01*
X134430922Y-111408037D01*
X134430673Y-111400110D01*
X134425022Y-111380658D01*
X134421014Y-111361306D01*
X134419468Y-111349068D01*
X134419467Y-111349066D01*
X134418474Y-111341203D01*
X134402194Y-111300086D01*
X134398359Y-111288885D01*
X134386018Y-111246406D01*
X134381985Y-111239587D01*
X134381983Y-111239582D01*
X134375707Y-111228971D01*
X134367010Y-111211221D01*
X134359552Y-111192383D01*
X134333571Y-111156623D01*
X134327053Y-111146701D01*
X134308578Y-111115460D01*
X134308574Y-111115455D01*
X134304542Y-111108637D01*
X134290218Y-111094313D01*
X134277376Y-111079278D01*
X134265472Y-111062893D01*
X134231406Y-111034711D01*
X134222627Y-111026722D01*
X129386818Y-106190913D01*
X129352792Y-106128601D01*
X129357857Y-106057786D01*
X129400404Y-106000950D01*
X129420471Y-105988672D01*
X129517994Y-105940896D01*
X129557382Y-105912801D01*
X129622016Y-105866699D01*
X129689090Y-105843425D01*
X129758098Y-105860109D01*
G37*
%TD.AperFunction*%
%TA.AperFunction,Conductor*%
G36*
X118856121Y-104536002D02*
G01*
X118902614Y-104589658D01*
X118914000Y-104642000D01*
X118914000Y-106088517D01*
X118918064Y-106102359D01*
X118931478Y-106104393D01*
X118938184Y-106103534D01*
X118948262Y-106101392D01*
X119152255Y-106040191D01*
X119161842Y-106036433D01*
X119353095Y-105942739D01*
X119361945Y-105937464D01*
X119535328Y-105813792D01*
X119543200Y-105807139D01*
X119694052Y-105656812D01*
X119700730Y-105648965D01*
X119828022Y-105471819D01*
X119829279Y-105472722D01*
X119876373Y-105429362D01*
X119946311Y-105417145D01*
X120011751Y-105444678D01*
X120039579Y-105476511D01*
X120099987Y-105575088D01*
X120246250Y-105743938D01*
X120418126Y-105886632D01*
X120611000Y-105999338D01*
X120819692Y-106079030D01*
X120824760Y-106080061D01*
X120824763Y-106080062D01*
X120919862Y-106099410D01*
X121038597Y-106123567D01*
X121043772Y-106123757D01*
X121043774Y-106123757D01*
X121256673Y-106131564D01*
X121256677Y-106131564D01*
X121261837Y-106131753D01*
X121266957Y-106131097D01*
X121266959Y-106131097D01*
X121478288Y-106104025D01*
X121478289Y-106104025D01*
X121483416Y-106103368D01*
X121488366Y-106101883D01*
X121692429Y-106040661D01*
X121692434Y-106040659D01*
X121697384Y-106039174D01*
X121897994Y-105940896D01*
X122079860Y-105811173D01*
X122238096Y-105653489D01*
X122368453Y-105472077D01*
X122369776Y-105473028D01*
X122416645Y-105429857D01*
X122486580Y-105417625D01*
X122552026Y-105445144D01*
X122579875Y-105476994D01*
X122639987Y-105575088D01*
X122786250Y-105743938D01*
X122958126Y-105886632D01*
X123151000Y-105999338D01*
X123359692Y-106079030D01*
X123364760Y-106080061D01*
X123364763Y-106080062D01*
X123459862Y-106099410D01*
X123578597Y-106123567D01*
X123583772Y-106123757D01*
X123583774Y-106123757D01*
X123796673Y-106131564D01*
X123796677Y-106131564D01*
X123801837Y-106131753D01*
X123806957Y-106131097D01*
X123806959Y-106131097D01*
X124018288Y-106104025D01*
X124018289Y-106104025D01*
X124023416Y-106103368D01*
X124028366Y-106101883D01*
X124232429Y-106040661D01*
X124232434Y-106040659D01*
X124237384Y-106039174D01*
X124437994Y-105940896D01*
X124619860Y-105811173D01*
X124778096Y-105653489D01*
X124908453Y-105472077D01*
X124909776Y-105473028D01*
X124956645Y-105429857D01*
X125026580Y-105417625D01*
X125092026Y-105445144D01*
X125119875Y-105476994D01*
X125179987Y-105575088D01*
X125326250Y-105743938D01*
X125498126Y-105886632D01*
X125691000Y-105999338D01*
X125899692Y-106079030D01*
X125904760Y-106080061D01*
X125904763Y-106080062D01*
X125999862Y-106099410D01*
X126118597Y-106123567D01*
X126123772Y-106123757D01*
X126123774Y-106123757D01*
X126336673Y-106131564D01*
X126336677Y-106131564D01*
X126341837Y-106131753D01*
X126346957Y-106131097D01*
X126346959Y-106131097D01*
X126558288Y-106104025D01*
X126558289Y-106104025D01*
X126563416Y-106103368D01*
X126568366Y-106101883D01*
X126772429Y-106040661D01*
X126772434Y-106040659D01*
X126777384Y-106039174D01*
X126977994Y-105940896D01*
X126988484Y-105933414D01*
X127034787Y-105900386D01*
X127105362Y-105850045D01*
X127172435Y-105826772D01*
X127241443Y-105843455D01*
X127267625Y-105863529D01*
X133129595Y-111725499D01*
X133163621Y-111787811D01*
X133166500Y-111814594D01*
X133166500Y-112071589D01*
X133146498Y-112139710D01*
X133092842Y-112186203D01*
X133022568Y-112196307D01*
X132987252Y-112185785D01*
X132976514Y-112180778D01*
X132959576Y-112172880D01*
X132746871Y-112115885D01*
X132527500Y-112096693D01*
X132308129Y-112115885D01*
X132292944Y-112119954D01*
X132276783Y-112124284D01*
X132205806Y-112122594D01*
X132155077Y-112091672D01*
X131871152Y-111807747D01*
X131863612Y-111799461D01*
X131859500Y-111792982D01*
X131833534Y-111768598D01*
X131809849Y-111746357D01*
X131807007Y-111743602D01*
X131787270Y-111723865D01*
X131784073Y-111721385D01*
X131775051Y-111713680D01*
X131761622Y-111701069D01*
X131742821Y-111683414D01*
X131735875Y-111679595D01*
X131735872Y-111679593D01*
X131725066Y-111673652D01*
X131708547Y-111662801D01*
X131708083Y-111662441D01*
X131692541Y-111650386D01*
X131685272Y-111647241D01*
X131685268Y-111647238D01*
X131651963Y-111632826D01*
X131641313Y-111627609D01*
X131602560Y-111606305D01*
X131582937Y-111601267D01*
X131564234Y-111594863D01*
X131552920Y-111589967D01*
X131552919Y-111589967D01*
X131545645Y-111586819D01*
X131537822Y-111585580D01*
X131537812Y-111585577D01*
X131501976Y-111579901D01*
X131490356Y-111577495D01*
X131455211Y-111568472D01*
X131455210Y-111568472D01*
X131447530Y-111566500D01*
X131427276Y-111566500D01*
X131407565Y-111564949D01*
X131395386Y-111563020D01*
X131387557Y-111561780D01*
X131358286Y-111564547D01*
X131343539Y-111565941D01*
X131331681Y-111566500D01*
X116318768Y-111566500D01*
X116307585Y-111565973D01*
X116300092Y-111564298D01*
X116292166Y-111564547D01*
X116292165Y-111564547D01*
X116232002Y-111566438D01*
X116228044Y-111566500D01*
X116200144Y-111566500D01*
X116196154Y-111567004D01*
X116184320Y-111567936D01*
X116140111Y-111569326D01*
X116132497Y-111571538D01*
X116132492Y-111571539D01*
X116120659Y-111574977D01*
X116101296Y-111578988D01*
X116081203Y-111581526D01*
X116073836Y-111584443D01*
X116073831Y-111584444D01*
X116040092Y-111597802D01*
X116028865Y-111601646D01*
X115986407Y-111613982D01*
X115979581Y-111618019D01*
X115968972Y-111624293D01*
X115951224Y-111632988D01*
X115932383Y-111640448D01*
X115925967Y-111645110D01*
X115925966Y-111645110D01*
X115896613Y-111666436D01*
X115886693Y-111672952D01*
X115855465Y-111691420D01*
X115855462Y-111691422D01*
X115848638Y-111695458D01*
X115834317Y-111709779D01*
X115819284Y-111722619D01*
X115802893Y-111734528D01*
X115797843Y-111740632D01*
X115797838Y-111740637D01*
X115774707Y-111768598D01*
X115766717Y-111777379D01*
X115452422Y-112091673D01*
X115390110Y-112125698D01*
X115330716Y-112124284D01*
X115299371Y-112115885D01*
X115080000Y-112096693D01*
X114860629Y-112115885D01*
X114845444Y-112119954D01*
X114829283Y-112124284D01*
X114758306Y-112122594D01*
X114707577Y-112091672D01*
X112823652Y-110207747D01*
X112816112Y-110199461D01*
X112812000Y-110192982D01*
X112762348Y-110146356D01*
X112759507Y-110143602D01*
X112739770Y-110123865D01*
X112736573Y-110121385D01*
X112727551Y-110113680D01*
X112701100Y-110088841D01*
X112695321Y-110083414D01*
X112688375Y-110079595D01*
X112688372Y-110079593D01*
X112677566Y-110073652D01*
X112661047Y-110062801D01*
X112660583Y-110062441D01*
X112645041Y-110050386D01*
X112637772Y-110047241D01*
X112637768Y-110047238D01*
X112604463Y-110032826D01*
X112593813Y-110027609D01*
X112555060Y-110006305D01*
X112535437Y-110001267D01*
X112516734Y-109994863D01*
X112505420Y-109989967D01*
X112505419Y-109989967D01*
X112498145Y-109986819D01*
X112490322Y-109985580D01*
X112490312Y-109985577D01*
X112454476Y-109979901D01*
X112442856Y-109977495D01*
X112407711Y-109968472D01*
X112407710Y-109968472D01*
X112400030Y-109966500D01*
X112379776Y-109966500D01*
X112360065Y-109964949D01*
X112347886Y-109963020D01*
X112340057Y-109961780D01*
X112332165Y-109962526D01*
X112296039Y-109965941D01*
X112284181Y-109966500D01*
X105185201Y-109966500D01*
X105117080Y-109946498D01*
X105070587Y-109892842D01*
X105060484Y-109822567D01*
X105063088Y-109804460D01*
X105063088Y-109804456D01*
X105063729Y-109800000D01*
X105063729Y-108650000D01*
X105058500Y-108576889D01*
X105017304Y-108436589D01*
X104975960Y-108372257D01*
X104943122Y-108321159D01*
X104943120Y-108321156D01*
X104938250Y-108313579D01*
X104931440Y-108307678D01*
X104834555Y-108223726D01*
X104834552Y-108223724D01*
X104827743Y-108217824D01*
X104694734Y-108157081D01*
X104685811Y-108155798D01*
X104554461Y-108136912D01*
X104554455Y-108136912D01*
X104550000Y-108136271D01*
X104549549Y-108136271D01*
X104483992Y-108111820D01*
X104441445Y-108054984D01*
X104433500Y-108010951D01*
X104433500Y-107244594D01*
X104453502Y-107176473D01*
X104470405Y-107155499D01*
X106926405Y-104699500D01*
X106988717Y-104665474D01*
X107059533Y-104670539D01*
X107116368Y-104713086D01*
X107141179Y-104779606D01*
X107141500Y-104788595D01*
X107141500Y-105668134D01*
X107148255Y-105730316D01*
X107199385Y-105866705D01*
X107286739Y-105983261D01*
X107403295Y-106070615D01*
X107539684Y-106121745D01*
X107601866Y-106128500D01*
X109398134Y-106128500D01*
X109460316Y-106121745D01*
X109596705Y-106070615D01*
X109713261Y-105983261D01*
X109800615Y-105866705D01*
X109820451Y-105813792D01*
X109844598Y-105749382D01*
X109887240Y-105692618D01*
X109953802Y-105667918D01*
X110023150Y-105683126D01*
X110057817Y-105711114D01*
X110086250Y-105743938D01*
X110258126Y-105886632D01*
X110451000Y-105999338D01*
X110659692Y-106079030D01*
X110664760Y-106080061D01*
X110664763Y-106080062D01*
X110759862Y-106099410D01*
X110878597Y-106123567D01*
X110883772Y-106123757D01*
X110883774Y-106123757D01*
X111096673Y-106131564D01*
X111096677Y-106131564D01*
X111101837Y-106131753D01*
X111106957Y-106131097D01*
X111106959Y-106131097D01*
X111318288Y-106104025D01*
X111318289Y-106104025D01*
X111323416Y-106103368D01*
X111328366Y-106101883D01*
X111532429Y-106040661D01*
X111532434Y-106040659D01*
X111537384Y-106039174D01*
X111737994Y-105940896D01*
X111919860Y-105811173D01*
X112078096Y-105653489D01*
X112208453Y-105472077D01*
X112209776Y-105473028D01*
X112256645Y-105429857D01*
X112326580Y-105417625D01*
X112392026Y-105445144D01*
X112419875Y-105476994D01*
X112479987Y-105575088D01*
X112626250Y-105743938D01*
X112798126Y-105886632D01*
X112991000Y-105999338D01*
X113199692Y-106079030D01*
X113204760Y-106080061D01*
X113204763Y-106080062D01*
X113299862Y-106099410D01*
X113418597Y-106123567D01*
X113423772Y-106123757D01*
X113423774Y-106123757D01*
X113636673Y-106131564D01*
X113636677Y-106131564D01*
X113641837Y-106131753D01*
X113646957Y-106131097D01*
X113646959Y-106131097D01*
X113858288Y-106104025D01*
X113858289Y-106104025D01*
X113863416Y-106103368D01*
X113868366Y-106101883D01*
X114072429Y-106040661D01*
X114072434Y-106040659D01*
X114077384Y-106039174D01*
X114277994Y-105940896D01*
X114459860Y-105811173D01*
X114618096Y-105653489D01*
X114748453Y-105472077D01*
X114749776Y-105473028D01*
X114796645Y-105429857D01*
X114866580Y-105417625D01*
X114932026Y-105445144D01*
X114959875Y-105476994D01*
X115019987Y-105575088D01*
X115166250Y-105743938D01*
X115338126Y-105886632D01*
X115531000Y-105999338D01*
X115739692Y-106079030D01*
X115744760Y-106080061D01*
X115744763Y-106080062D01*
X115839862Y-106099410D01*
X115958597Y-106123567D01*
X115963772Y-106123757D01*
X115963774Y-106123757D01*
X116176673Y-106131564D01*
X116176677Y-106131564D01*
X116181837Y-106131753D01*
X116186957Y-106131097D01*
X116186959Y-106131097D01*
X116398288Y-106104025D01*
X116398289Y-106104025D01*
X116403416Y-106103368D01*
X116408366Y-106101883D01*
X116612429Y-106040661D01*
X116612434Y-106040659D01*
X116617384Y-106039174D01*
X116817994Y-105940896D01*
X116999860Y-105811173D01*
X117158096Y-105653489D01*
X117288453Y-105472077D01*
X117289640Y-105472930D01*
X117336960Y-105429362D01*
X117406897Y-105417145D01*
X117472338Y-105444678D01*
X117500166Y-105476511D01*
X117557694Y-105570388D01*
X117563777Y-105578699D01*
X117703213Y-105739667D01*
X117710580Y-105746883D01*
X117874434Y-105882916D01*
X117882881Y-105888831D01*
X118066756Y-105996279D01*
X118076042Y-106000729D01*
X118275001Y-106076703D01*
X118284899Y-106079579D01*
X118388250Y-106100606D01*
X118402299Y-106099410D01*
X118406000Y-106089065D01*
X118406000Y-104642000D01*
X118426002Y-104573879D01*
X118479658Y-104527386D01*
X118532000Y-104516000D01*
X118788000Y-104516000D01*
X118856121Y-104536002D01*
G37*
%TD.AperFunction*%
%TD*%
M02*
